<?xml version="1.0" encoding="UTF-8" standalone="no"?>
<!-- Created with Inkscape (http://www.inkscape.org/) -->

<svg
   id="svg2"
   viewBox="0 0 270 69.999998"
   version="1.2"
   width="270"
   height="70"
   xml:space="preserve"
   xmlns="http://www.w3.org/2000/svg"
   xmlns:svg="http://www.w3.org/2000/svg"
   xmlns:rdf="http://www.w3.org/1999/02/22-rdf-syntax-ns#"
   xmlns:cc="http://creativecommons.org/ns#"
   xmlns:dc="http://purl.org/dc/elements/1.1/"><title
     id="title3716">keyboard</title><defs
     id="defs4"><style
       id="style4444"
       type="text/css" /><style
       id="style4444-3"
       type="text/css" /><style
       id="style4444-4"
       type="text/css" /></defs><flowRoot
     id="flowRoot6403"
     xml:space="preserve"
     style="font-style:italic;font-weight:bold;line-height:0.01%;font-family:'Plasmatica Rev';fill:#00aa00;stroke:#00aa00"
     transform="matrix(0.1688,2.1245,-2.1245,0.1688,479.22945,-943.73493)">
      <flowPara
   id="flowPara6409"
   style="font-size:8px;line-height:1.25" />
    </flowRoot><path
     id="rect454"
     style="opacity:0.96;fill:#ffffff;fill-opacity:1;stroke:none;stroke-width:0.558943;stroke-opacity:1"
     d="m 8.4900555,5.3965582 5.7480445,0.00977 c 0.74926,0.00127 1.3515,0.6543737 1.350322,1.4643579 l -0.009,6.2138929 c -0.0012,0.809978 -0.605316,1.461032 -1.354577,1.459758 l -5.7480438,-0.0098 c -0.7492553,-0.0013 -1.3515006,-0.65438 -1.350322,-1.464358 l 0.00904,-6.2138929 c 0.00114,-0.8099537 0.6052811,-1.461002 1.3545363,-1.4597279 z" /><path
     id="rect456"
     style="opacity:0.96;fill:#ffffff;fill-opacity:1;stroke:none;stroke-width:0.558943;stroke-opacity:1"
     d="m 18.747119,5.414 5.748044,0.00977 c 0.749256,0.00127 1.351501,0.6543738 1.350322,1.4643579 l -0.009,6.2138931 c -0.0012,0.809978 -0.605322,1.461032 -1.354577,1.459758 l -5.748044,-0.0098 c -0.749256,-0.0013 -1.351501,-0.654379 -1.350322,-1.464357 l 0.009,-6.2138931 C 17.393721,6.0637742 17.997864,5.4127259 18.747119,5.414 Z" /><path
     id="rect458"
     style="opacity:0.96;fill:#ffffff;fill-opacity:1;stroke:none;stroke-width:0.558943;stroke-opacity:1"
     d="m 29.789063,5.4327765 5.748045,0.00977 c 0.749255,0.00127 1.3515,0.6543738 1.350322,1.4643579 l -0.009,6.2138926 c -0.0012,0.809978 -0.605321,1.461032 -1.354577,1.459758 l -5.748044,-0.0098 c -0.74926,-0.0013 -1.3515,-0.65438 -1.350322,-1.464358 l 0.009,-6.2138926 c 0.0012,-0.8099841 0.605316,-1.4610324 1.354576,-1.4597583 z" /><path
     id="rect460"
     style="opacity:0.96;fill:#ffffff;fill-opacity:1;stroke:none;stroke-width:0.558943;stroke-opacity:1"
     d="m 40.443943,5.4508948 5.748045,0.00977 c 0.74926,0.00127 1.3515,0.6543737 1.350322,1.4643579 l -0.009,6.2138923 c -0.0012,0.809979 -0.605316,1.461033 -1.354577,1.459759 l -5.748044,-0.0098 c -0.749255,-0.0013 -1.351501,-0.654379 -1.350322,-1.464358 l 0.009,-6.2138923 c 0.0012,-0.8099841 0.605321,-1.4610324 1.354576,-1.4597583 z" /><path
     id="rect462"
     style="opacity:0.96;fill:#ffffff;fill-opacity:1;stroke:none;stroke-width:0.558943;stroke-opacity:1"
     d="m 51.878312,5.4703386 5.748044,0.00977 c 0.749261,0.00127 1.351501,0.6543737 1.350322,1.4643579 l -0.009,6.2138925 c -0.0012,0.809978 -0.605317,1.461032 -1.354577,1.459758 l -5.748044,-0.0098 c -0.749256,-0.0013 -1.351501,-0.65438 -1.350322,-1.464358 l 0.009,-6.2138925 c 0.0012,-0.8099841 0.605322,-1.4610324 1.354577,-1.4597583 z" /><path
     id="rect464"
     style="opacity:0.96;fill:#ffffff;fill-opacity:1;stroke:none;stroke-width:0.558943;stroke-opacity:1"
     d="m 62.135376,5.4877804 5.748044,0.00977 c 0.749255,0.00127 1.3515,0.6543738 1.350322,1.4643579 l -0.009,6.2138927 c -0.0012,0.809978 -0.605321,1.461032 -1.354577,1.459758 l -5.748044,-0.0098 c -0.749255,-0.0013 -1.3515,-0.65438 -1.350322,-1.464358 l 0.009,-6.2138927 C 60.781999,6.1375242 61.38612,5.4864759 62.135376,5.48775 Z" /><path
     id="rect466"
     style="opacity:0.96;fill:#ffffff;fill-opacity:1;stroke:none;stroke-width:0.558943;stroke-opacity:1"
     d="m 73.972947,5.5079099 5.748044,0.00977 c 0.749255,0.00127 1.351501,0.6543738 1.350322,1.4643579 l -0.009,6.2138922 c -0.0012,0.809979 -0.605322,1.461033 -1.354577,1.459759 l -5.748044,-0.0098 c -0.749256,-0.0013 -1.351501,-0.654379 -1.350322,-1.464358 l 0.009,-6.2138921 c 0.0012,-0.8099842 0.605322,-1.4610324 1.354577,-1.4597583 z" /><path
     id="rect468"
     style="opacity:0.96;fill:#ffffff;fill-opacity:1;stroke:none;stroke-width:0.558943;stroke-opacity:1"
     d="m 85.014875,5.5266863 5.748044,0.00977 c 0.749256,0.00127 1.351501,0.6543738 1.350322,1.4643579 l -0.009,6.2138928 c -0.0012,0.809978 -0.605322,1.461032 -1.354577,1.459758 l -5.748044,-0.0098 c -0.749261,-0.0013 -1.351501,-0.65438 -1.350322,-1.464358 l 0.009,-6.2138928 c 0.0012,-0.8099841 0.605317,-1.4610324 1.354577,-1.4597583 z" /><path
     id="rect470"
     style="opacity:0.96;fill:#ffffff;fill-opacity:1;stroke:none;stroke-width:0.558943;stroke-opacity:1"
     d="m 96.852447,5.5468157 5.748043,0.00977 c 0.74926,0.00127 1.3515,0.6543738 1.35032,1.4643579 l -0.009,6.2138924 c -0.001,0.809979 -0.60532,1.461033 -1.35458,1.459759 l -5.74804,-0.0098 c -0.74926,-0.0013 -1.3515,-0.654379 -1.350322,-1.464358 l 0.009,-6.2138924 c 0.0012,-0.8099841 0.605316,-1.4610323 1.354577,-1.4597583 z" /><path
     id="rect472"
     style="opacity:0.96;fill:#ffffff;fill-opacity:1;stroke:none;stroke-width:0.558943;stroke-opacity:1"
     d="m 107.89437,5.5655922 5.74805,0.00977 c 0.74925,0.00127 1.3515,0.6543737 1.35032,1.4643579 l -0.009,6.2138929 c -10e-4,0.809978 -0.60532,1.461032 -1.35458,1.459758 l -5.74804,-0.0098 c -0.74926,-0.0013 -1.3515,-0.65438 -1.35032,-1.464358 l 0.009,-6.2138929 c 0.001,-0.8099841 0.60531,-1.4610324 1.35457,-1.4597583 z" /><path
     id="rect474"
     style="opacity:0.96;fill:#ffffff;fill-opacity:1;stroke:none;stroke-width:0.558943;stroke-opacity:1"
     d="m 119.73194,5.5857216 5.74805,0.00977 c 0.74926,0.00127 1.3515,0.6543738 1.35032,1.4643579 l -0.009,6.2138925 c -10e-4,0.809978 -0.60532,1.461033 -1.35458,1.459758 l -5.74805,-0.0098 c -0.74925,-0.0013 -1.3515,-0.65438 -1.35032,-1.464358 l 0.009,-6.2138925 c 0.001,-0.8099841 0.60533,-1.4610324 1.35458,-1.4597583 z" /><path
     id="rect476"
     style="opacity:0.96;fill:#ffffff;fill-opacity:1;stroke:none;stroke-width:0.558943;stroke-opacity:1"
     d="m 130.77387,5.6044981 5.74804,0.00977 c 0.74926,0.00127 1.3515,0.6543737 1.35033,1.4643579 l -0.009,6.213893 c -10e-4,0.809978 -0.60531,1.461032 -1.35457,1.459758 l -5.74805,-0.0098 c -0.74925,-0.0013 -1.3515,-0.65438 -1.35032,-1.464358 l 0.009,-6.213893 c 0.001,-0.8099842 0.60532,-1.4610324 1.35458,-1.4597583 z" /><path
     id="rect478"
     style="opacity:0.96;fill:#ffffff;fill-opacity:1;stroke:none;stroke-width:0.558943;stroke-opacity:1"
     d="m 142.61144,5.6246275 5.74804,0.00977 c 0.74927,0.00127 1.35151,0.6543737 1.35033,1.4643579 l -0.009,6.2138926 c -10e-4,0.809978 -0.60532,1.461032 -1.35458,1.459758 l -5.74805,-0.0098 c -0.74925,-0.0013 -1.3515,-0.65438 -1.35032,-1.464358 l 0.009,-6.2138926 c 0.001,-0.8099841 0.60533,-1.4610324 1.35458,-1.4597583 z" /><path
     id="rect480"
     style="opacity:0.96;fill:#ffffff;fill-opacity:1;stroke:none;stroke-width:0.558943;stroke-opacity:1"
     d="m 154.05117,5.6440804 16.59592,0.028221 c 0.74926,0.00127 1.3515,0.6543737 1.35032,1.4643579 l -0.009,6.2138917 c -10e-4,0.809979 -0.60532,1.461033 -1.35458,1.459759 l -16.59591,-0.02822 c -0.74926,-0.0013 -1.3515,-0.65438 -1.35032,-1.464358 l 0.009,-6.2138922 c 0.001,-0.8099841 0.60532,-1.4610324 1.35457,-1.4597583 z" /><path
     id="rect482"
     style="opacity:0.96;fill:#ffffff;fill-opacity:1;stroke:none;stroke-width:0.558943;stroke-opacity:1"
     d="m 8.4892708,17.019593 11.6652122,0.01984 c 0.74926,0.0013 1.3515,0.654374 1.350322,1.464358 l -0.009,6.213892 c -0.0012,0.809979 -0.605316,1.461033 -1.354577,1.459759 L 8.4759744,26.157601 c -0.7492552,-0.0013 -1.3515005,-0.654379 -1.350322,-1.464357 l 0.00904,-6.213893 c 0.00118,-0.809984 0.6053216,-1.461032 1.3545768,-1.459758 z" /><path
     id="rect484"
     style="opacity:0.96;fill:#ffffff;fill-opacity:1;stroke:none;stroke-width:0.558943;stroke-opacity:1"
     d="m 24.804881,17.047337 5.748044,0.0098 c 0.749255,0.0013 1.351501,0.654373 1.350322,1.464358 l -0.009,6.213892 c -0.0012,0.809978 -0.605321,1.461032 -1.354576,1.459758 l -5.748045,-0.0098 c -0.74926,-0.0013 -1.3515,-0.65438 -1.350322,-1.464358 l 0.009,-6.213892 c 0.0012,-0.809985 0.605316,-1.461033 1.354577,-1.459758 z" /><path
     id="rect486"
     style="opacity:0.96;fill:#ffffff;fill-opacity:1;stroke:none;stroke-width:0.558943;stroke-opacity:1"
     d="m 35.846825,17.066114 5.748044,0.0098 c 0.749256,0.0013 1.351501,0.654374 1.350322,1.464358 l -0.009,6.213892 c -0.0012,0.809979 -0.605322,1.461033 -1.354577,1.459759 l -5.748044,-0.0098 c -0.749261,-0.0013 -1.351501,-0.654379 -1.350322,-1.464358 l 0.009,-6.213892 c 0.0012,-0.809984 0.605316,-1.461032 1.354577,-1.459758 z" /><path
     id="rect488"
     style="opacity:0.96;fill:#ffffff;fill-opacity:1;stroke:none;stroke-width:0.558943;stroke-opacity:1"
     d="m 46.501705,17.084232 5.748044,0.0098 c 0.749261,0.0013 1.351501,0.654374 1.350322,1.464358 l -0.009,6.213893 c -0.0012,0.809978 -0.605317,1.461032 -1.354577,1.459758 l -5.748044,-0.0098 c -0.749256,-0.0013 -1.351501,-0.654379 -1.350322,-1.464357 l 0.009,-6.213893 c 0.0012,-0.809984 0.605322,-1.461032 1.354577,-1.459758 z" /><path
     id="rect490"
     style="opacity:0.96;fill:#ffffff;fill-opacity:1;stroke:none;stroke-width:0.558943;stroke-opacity:1"
     d="m 57.941455,17.103685 5.748044,0.0098 c 0.749255,0.0013 1.351501,0.654374 1.350322,1.464358 l -0.009,6.213892 c -0.0012,0.809979 -0.605321,1.461033 -1.354576,1.459759 l -5.748045,-0.0098 c -0.749255,-0.0013 -1.3515,-0.654379 -1.350322,-1.464358 l 0.009,-6.213892 c 0.0012,-0.809984 0.605322,-1.461032 1.354577,-1.459758 z" /><path
     id="rect492"
     style="opacity:0.96;fill:#ffffff;fill-opacity:1;stroke:none;stroke-width:0.558943;stroke-opacity:1"
     d="m 68.198518,17.121127 5.748045,0.0098 c 0.749255,0.0013 1.3515,0.654374 1.350322,1.464358 l -0.009,6.213892 c -0.0012,0.809979 -0.605322,1.461033 -1.354577,1.459759 l -5.748044,-0.0098 c -0.749261,-0.0013 -1.351501,-0.654379 -1.350322,-1.464358 l 0.009,-6.213892 c 0.0012,-0.809984 0.605316,-1.461032 1.354576,-1.459758 z" /><path
     id="rect494"
     style="opacity:0.96;fill:#ffffff;fill-opacity:1;stroke:none;stroke-width:0.558943;stroke-opacity:1"
     d="m 80.030709,17.141247 5.748044,0.0098 c 0.749255,0.0013 1.3515,0.654374 1.350322,1.464358 l -0.009,6.213893 c -0.0012,0.809978 -0.605321,1.461032 -1.354577,1.459758 l -5.748044,-0.0098 c -0.74926,-0.0013 -1.3515,-0.654379 -1.350322,-1.464357 l 0.009,-6.213893 c 0.0012,-0.809984 0.605316,-1.461032 1.354577,-1.459758 z" /><path
     id="rect496"
     style="opacity:0.96;fill:#ffffff;fill-opacity:1;stroke:none;stroke-width:0.558943;stroke-opacity:1"
     d="m 91.072653,17.160024 5.748044,0.0098 c 0.749255,0.0013 1.351501,0.654374 1.350322,1.464358 l -0.009,6.213892 c -0.0012,0.809978 -0.605322,1.461032 -1.354577,1.459758 l -5.748044,-0.0098 c -0.749261,-0.0013 -1.351501,-0.65438 -1.350322,-1.464358 l 0.009,-6.213892 c 0.0012,-0.809984 0.605316,-1.461033 1.354577,-1.459758 z" /><path
     id="rect498"
     style="opacity:0.96;fill:#ffffff;fill-opacity:1;stroke:none;stroke-width:0.558943;stroke-opacity:1"
     d="m 102.91021,17.180153 5.74804,0.0098 c 0.74926,0.0013 1.3515,0.654374 1.35032,1.464358 l -0.009,6.213892 c -0.001,0.809979 -0.60532,1.461033 -1.35457,1.459759 l -5.74805,-0.0098 c -0.74926,-0.0013 -1.3515,-0.654379 -1.35032,-1.464358 l 0.009,-6.213892 c 0.001,-0.809984 0.60532,-1.461032 1.35458,-1.459759 z" /><path
     id="rect500"
     style="opacity:0.96;fill:#ffffff;fill-opacity:1;stroke:none;stroke-width:0.558943;stroke-opacity:1"
     d="m 113.95213,17.198929 5.74805,0.0098 c 0.74926,0.0013 1.3515,0.654374 1.35032,1.464358 l -0.009,6.213892 c -0.001,0.809978 -0.60532,1.461032 -1.35458,1.459758 l -5.74805,-0.0098 c -0.74925,-0.0013 -1.3515,-0.65438 -1.35032,-1.464358 l 0.009,-6.213892 c 0.001,-0.809984 0.60533,-1.461033 1.35458,-1.459758 z" /><path
     id="rect502"
     style="opacity:0.96;fill:#ffffff;fill-opacity:1;stroke:none;stroke-width:0.558943;stroke-opacity:1"
     d="m 125.7897,17.219059 5.74805,0.0098 c 0.74926,0.0013 1.3515,0.654374 1.35032,1.464358 l -0.009,6.213892 c -0.001,0.809979 -0.60532,1.461033 -1.35458,1.459759 l -5.74804,-0.0098 c -0.74926,-0.0013 -1.3515,-0.654379 -1.35033,-1.464358 l 0.009,-6.213892 c 0.001,-0.809984 0.60532,-1.461032 1.35457,-1.459758 z" /><path
     id="rect504"
     style="opacity:0.96;fill:#ffffff;fill-opacity:1;stroke:none;stroke-width:0.558943;stroke-opacity:1"
     d="m 136.83163,17.237835 5.74805,0.0098 c 0.74925,0.0013 1.3515,0.654373 1.35032,1.464358 l -0.009,6.213892 c -0.001,0.809978 -0.60533,1.461032 -1.35458,1.459758 l -5.74805,-0.0098 c -0.74925,-0.0013 -1.3515,-0.65438 -1.35032,-1.464358 l 0.009,-6.213892 c 0.001,-0.809985 0.60533,-1.461033 1.35458,-1.459759 z" /><path
     id="rect506"
     style="opacity:0.96;fill:#ffffff;fill-opacity:1;stroke:none;stroke-width:0.558943;stroke-opacity:1"
     d="m 148.6692,17.257965 5.74805,0.0098 c 0.74925,0.0013 1.3515,0.654374 1.35032,1.464358 l -0.009,6.213892 c -0.001,0.809979 -0.60532,1.461033 -1.35458,1.459759 l -5.74804,-0.0098 c -0.74926,-0.0013 -1.3515,-0.654379 -1.35033,-1.464358 l 0.009,-6.213892 c 0.001,-0.809984 0.60532,-1.461032 1.35457,-1.459758 z" /><path
     id="rect508"
     style="opacity:0.96;fill:#ffffff;fill-opacity:1;stroke:none;stroke-width:0.558943;stroke-opacity:1"
     d="m 160.24875,17.277655 10.81959,0.0184 c 0.74926,0.0013 1.3515,0.654374 1.35032,1.464358 l -0.009,6.213892 c -0.001,0.809978 -0.60532,1.461032 -1.35458,1.459758 l -10.81959,-0.0184 c -0.74926,-0.0013 -1.3515,-0.65438 -1.35032,-1.464358 l 0.009,-6.213892 c 0.001,-0.809984 0.60532,-1.461033 1.35458,-1.459759 z" /><path
     id="rect510"
     style="opacity:0.96;fill:#ffffff;fill-opacity:1;stroke:none;stroke-width:0.558943;stroke-opacity:1"
     d="m 8.4884861,28.642628 13.5182579,0.02299 c 0.749255,0.0013 1.3515,0.654374 1.350322,1.464358 l -0.009,6.213892 c -0.0012,0.809979 -0.605321,1.461033 -1.354577,1.459759 L 8.4751897,37.780636 c -0.7492552,-0.0013 -1.3515006,-0.654379 -1.350322,-1.464358 l 0.00904,-6.213892 c 0.00118,-0.809984 0.6053215,-1.461032 1.3545768,-1.459758 z" /><path
     id="rect512"
     style="opacity:0.96;fill:#ffffff;fill-opacity:1;stroke:none;stroke-width:0.558943;stroke-opacity:1"
     d="m 27.303864,28.674623 5.748044,0.0098 c 0.749256,0.0013 1.351501,0.654374 1.350322,1.464358 l -0.009,6.213892 c -0.0012,0.809979 -0.605322,1.461033 -1.354577,1.459759 l -5.748044,-0.0098 c -0.749255,-0.0013 -1.351501,-0.654379 -1.350322,-1.464358 l 0.009,-6.213892 c 0.0012,-0.809984 0.605322,-1.461032 1.354577,-1.459758 z" /><path
     id="rect514"
     style="opacity:0.96;fill:#ffffff;fill-opacity:1;stroke:none;stroke-width:0.558943;stroke-opacity:1"
     d="m 38.356555,28.693418 5.748044,0.0098 c 0.749255,0.0013 1.351501,0.654374 1.350322,1.464358 l -0.009,6.213892 c -0.0012,0.809978 -0.605321,1.461032 -1.354576,1.459758 l -5.748045,-0.0098 c -0.74926,-0.0013 -1.3515,-0.65438 -1.350322,-1.464358 l 0.009,-6.213892 c 0.0012,-0.809984 0.605316,-1.461033 1.354577,-1.459758 z" /><path
     id="rect516"
     style="opacity:0.96;fill:#ffffff;fill-opacity:1;stroke:none;stroke-width:0.558943;stroke-opacity:1"
     d="m 49.199578,28.711856 5.748044,0.0098 c 0.749255,0.0013 1.3515,0.654374 1.350322,1.464358 l -0.009,6.213892 c -0.0012,0.809979 -0.605321,1.461033 -1.354577,1.459759 l -5.748044,-0.0098 c -0.749255,-0.0013 -1.3515,-0.654379 -1.350322,-1.464358 l 0.009,-6.213892 c 0.0012,-0.809984 0.605321,-1.461032 1.354577,-1.459758 z" /><path
     id="rect518"
     style="opacity:0.96;fill:#ffffff;fill-opacity:1;stroke:none;stroke-width:0.558943;stroke-opacity:1"
     d="m 60.053363,28.730312 5.748044,0.0098 c 0.749261,0.0013 1.351501,0.654373 1.350322,1.464358 l -0.009,6.213892 c -0.0012,0.809978 -0.605316,1.461032 -1.354576,1.459758 l -5.748045,-0.0098 c -0.749255,-0.0013 -1.3515,-0.65438 -1.350322,-1.464358 l 0.009,-6.213892 c 0.0012,-0.809984 0.605322,-1.461033 1.354577,-1.459758 z" /><path
     id="rect520"
     style="opacity:0.96;fill:#ffffff;fill-opacity:1;stroke:none;stroke-width:0.558943;stroke-opacity:1"
     d="m 71.095307,28.749089 5.748044,0.0098 c 0.749256,0.0013 1.351501,0.654374 1.350322,1.464358 l -0.009,6.213892 c -0.0012,0.809979 -0.605322,1.461033 -1.354577,1.459759 l -5.748044,-0.0098 c -0.749255,-0.0013 -1.351501,-0.654379 -1.350322,-1.464358 l 0.009,-6.213892 c 0.0012,-0.809984 0.605322,-1.461032 1.354577,-1.459758 z" /><path
     id="rect522"
     style="opacity:0.96;fill:#ffffff;fill-opacity:1;stroke:none;stroke-width:0.558943;stroke-opacity:1"
     d="m 82.535057,28.768542 5.748044,0.0098 c 0.749256,0.0013 1.351501,0.654374 1.350322,1.464358 l -0.009,6.213892 c -0.0012,0.809979 -0.605322,1.461033 -1.354577,1.459759 l -5.748044,-0.0098 c -0.749256,-0.0013 -1.351501,-0.654379 -1.350322,-1.464358 l 0.009,-6.213892 c 0.0012,-0.809984 0.605322,-1.461032 1.354577,-1.459758 z" /><path
     id="rect524"
     style="opacity:0.96;fill:#ffffff;fill-opacity:1;stroke:none;stroke-width:0.558943;stroke-opacity:1"
     d="m 93.974807,28.787995 5.748044,0.0098 c 0.749259,0.0013 1.351499,0.654374 1.350319,1.464358 l -0.009,6.213892 c -0.001,0.809979 -0.60532,1.461033 -1.354575,1.459759 l -5.748044,-0.0098 c -0.749256,-0.0013 -1.351501,-0.654379 -1.350322,-1.464358 l 0.009,-6.213892 c 0.0012,-0.809984 0.605322,-1.461032 1.354577,-1.459758 z" /><path
     id="rect526"
     style="opacity:0.96;fill:#ffffff;fill-opacity:1;stroke:none;stroke-width:0.558943;stroke-opacity:1"
     d="m 105.41456,28.807448 5.74804,0.0098 c 0.74926,0.0013 1.3515,0.654374 1.35032,1.464358 l -0.009,6.213892 c -10e-4,0.809978 -0.60532,1.461033 -1.35458,1.459758 l -5.74804,-0.0098 c -0.74926,-0.0013 -1.3515,-0.654379 -1.35032,-1.464358 l 0.009,-6.213892 c 0.001,-0.809984 0.60532,-1.461032 1.35458,-1.459758 z" /><path
     id="rect528"
     style="opacity:0.96;fill:#ffffff;fill-opacity:1;stroke:none;stroke-width:0.558943;stroke-opacity:1"
     d="m 116.46187,28.826233 5.74804,0.0098 c 0.74926,0.0013 1.3515,0.654373 1.35032,1.464358 l -0.009,6.213892 c -0.001,0.809978 -0.60532,1.461032 -1.35458,1.459758 l -5.74804,-0.0098 c -0.74926,-0.0013 -1.3515,-0.65438 -1.35032,-1.464358 l 0.009,-6.213892 c 10e-4,-0.809985 0.60532,-1.461033 1.35458,-1.459758 z" /><path
     id="rect530"
     style="opacity:0.96;fill:#ffffff;fill-opacity:1;stroke:none;stroke-width:0.558943;stroke-opacity:1"
     d="m 127.50382,28.84501 5.74805,0.0098 c 0.74926,0.0013 1.3515,0.654374 1.35032,1.464358 l -0.009,6.213892 c -0.001,0.809979 -0.60532,1.461033 -1.35458,1.459759 l -5.74805,-0.0098 c -0.74925,-0.0013 -1.3515,-0.654379 -1.35032,-1.464358 l 0.009,-6.213892 c 10e-4,-0.809984 0.60533,-1.461032 1.35458,-1.459758 z" /><path
     id="rect532"
     style="opacity:0.96;fill:#ffffff;fill-opacity:1;stroke:none;stroke-width:0.558943;stroke-opacity:1"
     d="m 139.34136,28.865139 5.74804,0.0098 c 0.74927,0.0013 1.35151,0.654373 1.35033,1.464357 l -0.009,6.213893 c -0.001,0.809978 -0.60532,1.461032 -1.35458,1.459758 l -5.74805,-0.0098 c -0.74925,-0.0013 -1.3515,-0.65438 -1.35032,-1.464358 l 0.009,-6.213893 c 10e-4,-0.809984 0.60533,-1.461032 1.35458,-1.459757 z" /><path
     id="rect534"
     style="opacity:0.96;fill:#ffffff;fill-opacity:1;stroke:none;stroke-width:0.558943;stroke-opacity:1"
     d="m 151.17355,28.885259 18.98655,0.03229 c 0.74925,0.0013 1.3515,0.654374 1.35032,1.464358 l -0.009,6.213893 c -0.001,0.809978 -0.60533,1.461032 -1.35458,1.459758 l -18.98655,-0.03229 c -0.74925,-0.0013 -1.3515,-0.65438 -1.35032,-1.464358 l 0.009,-6.213892 c 0.001,-0.809984 0.60533,-1.461033 1.35458,-1.459759 z" /><path
     id="rect536"
     style="opacity:0.96;fill:#ffffff;fill-opacity:1;stroke:none;stroke-width:0.558943;stroke-opacity:1"
     d="m 8.4930664,40.265672 18.3000516,0.03112 c 0.749255,0.0013 1.351501,0.654374 1.350322,1.464358 l -0.009,6.213893 c -0.0012,0.809978 -0.605322,1.461032 -1.354577,1.459758 L 8.47977,49.40368 C 7.7305094,49.402406 7.1282695,48.749301 7.129448,47.939322 l 0.00904,-6.213892 c 0.00118,-0.809984 0.6053162,-1.461032 1.3545768,-1.459758 z" /><path
     id="rect538"
     style="opacity:0.96;fill:#ffffff;fill-opacity:1;stroke:none;stroke-width:0.558943;stroke-opacity:1"
     d="m 31.888656,40.305455 5.748044,0.0098 c 0.749255,0.0013 1.351501,0.654373 1.350322,1.464358 l -0.009,6.213892 c -0.0012,0.809978 -0.605321,1.461032 -1.354576,1.459758 l -5.748045,-0.0098 c -0.74926,-0.0013 -1.3515,-0.65438 -1.350322,-1.464358 l 0.009,-6.213892 c 0.0012,-0.809985 0.605316,-1.461033 1.354577,-1.459758 z" /><path
     id="rect540"
     style="opacity:0.96;fill:#ffffff;fill-opacity:1;stroke:none;stroke-width:0.558943;stroke-opacity:1"
     d="m 42.941341,40.32425 5.748044,0.0098 c 0.749261,0.0013 1.351501,0.654374 1.350322,1.464358 l -0.009,6.213893 c -0.0012,0.809978 -0.605316,1.461032 -1.354577,1.459758 l -5.748044,-0.0098 c -0.749256,-0.0013 -1.351501,-0.654379 -1.350322,-1.464357 l 0.009,-6.213893 c 0.0012,-0.809984 0.605322,-1.461032 1.354577,-1.459759 z" /><path
     id="rect542"
     style="opacity:0.96;fill:#ffffff;fill-opacity:1;stroke:none;stroke-width:0.558943;stroke-opacity:1"
     d="m 53.779004,40.342679 5.748044,0.0098 c 0.749256,0.0013 1.351501,0.654373 1.350322,1.464357 l -0.009,6.213893 c -0.0012,0.809978 -0.605322,1.461032 -1.354577,1.459758 l -5.748044,-0.0098 c -0.749255,-0.0013 -1.351501,-0.65438 -1.350322,-1.464358 l 0.009,-6.213893 c 0.0012,-0.809984 0.605322,-1.461032 1.354577,-1.459757 z" /><path
     id="rect544"
     style="opacity:0.96;fill:#ffffff;fill-opacity:1;stroke:none;stroke-width:0.558943;stroke-opacity:1"
     d="m 64.632789,40.361136 5.748045,0.0098 c 0.749255,0.0013 1.3515,0.654374 1.350322,1.464358 l -0.009,6.213892 c -0.0012,0.809979 -0.605321,1.461033 -1.354577,1.459758 l -5.748044,-0.0098 c -0.749255,-0.0013 -1.3515,-0.654379 -1.350322,-1.464358 l 0.009,-6.213892 c 0.0012,-0.809984 0.605321,-1.461032 1.354576,-1.459758 z" /><path
     id="rect546"
     style="opacity:0.96;fill:#ffffff;fill-opacity:1;stroke:none;stroke-width:0.558943;stroke-opacity:1"
     d="m 75.680099,40.379921 5.748044,0.0098 c 0.749255,0.0013 1.351501,0.654373 1.350322,1.464358 l -0.009,6.213892 c -0.0012,0.809978 -0.605322,1.461032 -1.354577,1.459758 l -5.748044,-0.0098 c -0.749256,-0.0013 -1.351501,-0.65438 -1.350322,-1.464358 l 0.009,-6.213892 c 0.0012,-0.809985 0.605322,-1.461033 1.354577,-1.459758 z" /><path
     id="rect548"
     style="opacity:0.96;fill:#ffffff;fill-opacity:1;stroke:none;stroke-width:0.558943;stroke-opacity:1"
     d="m 87.119849,40.399374 5.748044,0.0098 c 0.749255,0.0013 1.351501,0.654373 1.350322,1.464358 l -0.009,6.213892 c -0.0012,0.809978 -0.605321,1.461032 -1.354576,1.459758 l -5.748045,-0.0098 c -0.74926,-0.0013 -1.3515,-0.65438 -1.350322,-1.464358 l 0.009,-6.213892 c 0.0012,-0.809985 0.605316,-1.461033 1.354577,-1.459758 z" /><path
     id="rect550"
     style="opacity:0.96;fill:#ffffff;fill-opacity:1;stroke:none;stroke-width:0.558943;stroke-opacity:1"
     d="m 98.559599,40.418827 5.748041,0.0098 c 0.74926,0.0013 1.3515,0.654373 1.35032,1.464357 l -0.009,6.213893 c -0.001,0.809978 -0.60532,1.461032 -1.35457,1.459758 l -5.748048,-0.0098 c -0.74926,-0.0013 -1.3515,-0.65438 -1.350322,-1.464358 l 0.009,-6.213893 c 0.0012,-0.809984 0.605316,-1.461032 1.354577,-1.459758 z" /><path
     id="rect552"
     style="opacity:0.96;fill:#ffffff;fill-opacity:1;stroke:none;stroke-width:0.558943;stroke-opacity:1"
     d="m 109.99935,40.43828 5.74804,0.0098 c 0.74926,0.0013 1.3515,0.654373 1.35032,1.464357 l -0.009,6.213893 c -0.001,0.809978 -0.60532,1.461032 -1.35457,1.459758 l -5.74805,-0.0098 c -0.74926,-0.0013 -1.3515,-0.65438 -1.35032,-1.464358 l 0.009,-6.213893 c 0.001,-0.809984 0.60532,-1.461032 1.35458,-1.459757 z" /><path
     id="rect554"
     style="opacity:0.96;fill:#ffffff;fill-opacity:1;stroke:none;stroke-width:0.558943;stroke-opacity:1"
     d="m 121.04665,40.457066 5.74805,0.0098 c 0.74926,0.0013 1.3515,0.654374 1.35032,1.464358 l -0.009,6.213892 c -0.001,0.809979 -0.60532,1.461033 -1.35458,1.459759 l -5.74804,-0.0098 c -0.74926,-0.0013 -1.3515,-0.654379 -1.35033,-1.464358 l 0.009,-6.213892 c 0.001,-0.809984 0.60532,-1.461032 1.35457,-1.459758 z" /><path
     id="rect556"
     style="opacity:0.96;fill:#ffffff;fill-opacity:1;stroke:none;stroke-width:0.558943;stroke-opacity:1"
     d="m 132.08861,40.475842 6.54474,0.01113 c 0.74926,0.0013 1.3515,0.654374 1.35033,1.464358 l -0.009,6.213892 c -0.001,0.809979 -0.60532,1.461033 -1.35457,1.459759 l -6.54474,-0.01113 c -0.74926,-0.0013 -1.3515,-0.65438 -1.35033,-1.464358 l 0.009,-6.213892 c 0.001,-0.809985 0.60532,-1.461033 1.35457,-1.459759 z" /><path
     id="rect558"
     style="opacity:0.96;fill:#ffffff;fill-opacity:1;stroke:none;stroke-width:0.558943;stroke-opacity:1"
     d="m 145.1196,40.498001 24.99134,0.0425 c 0.74926,0.0013 1.3515,0.654374 1.35032,1.464358 l -0.009,6.213892 c -0.001,0.809978 -0.60532,1.461033 -1.35458,1.459758 l -24.99134,-0.0425 c -0.74925,-0.0013 -1.3515,-0.654379 -1.35032,-1.464357 l 0.009,-6.213893 c 0.001,-0.809984 0.60533,-1.461032 1.35458,-1.459758 z" /><path
     id="rect560"
     style="opacity:0.96;fill:#ffffff;fill-opacity:1;stroke:none;stroke-width:0.558943;stroke-opacity:1"
     d="m 8.4922817,51.888707 11.3265353,0.01926 c 0.749255,0.0013 1.3515,0.654374 1.350322,1.464358 l -0.009,6.213892 c -0.0012,0.809978 -0.605321,1.461033 -1.354577,1.459758 L 8.4789853,61.026715 c -0.7492606,-0.0013 -1.3515006,-0.65438 -1.350322,-1.464358 l 0.00904,-6.213892 c 0.00118,-0.809984 0.6053162,-1.461032 1.3545768,-1.459758 z" /><path
     id="rect562"
     style="opacity:0.96;fill:#ffffff;fill-opacity:1;stroke:none;stroke-width:0.558943;stroke-opacity:1"
     d="m 24.318703,51.915619 7.939767,0.0135 c 0.749255,0.0013 1.3515,0.654374 1.350321,1.464358 l -0.009,6.213892 c -0.0012,0.809979 -0.605322,1.461033 -1.354577,1.459759 l -7.939767,-0.0135 c -0.749255,-0.0013 -1.3515,-0.654379 -1.350322,-1.464358 l 0.009,-6.213892 c 0.0012,-0.809984 0.605321,-1.461032 1.354577,-1.459758 z" /><path
     id="rect564"
     style="opacity:0.96;fill:#ffffff;fill-opacity:1;stroke:none;stroke-width:0.558943;stroke-opacity:1"
     d="m 37.360453,51.937796 8.022017,0.01364 c 0.749255,0.0013 1.3515,0.654374 1.350322,1.464358 l -0.009,6.213892 c -0.0012,0.809979 -0.605321,1.461033 -1.354577,1.459759 l -8.022017,-0.01364 c -0.749255,-0.0013 -1.3515,-0.654379 -1.350322,-1.464357 l 0.009,-6.213893 c 0.0012,-0.809984 0.605322,-1.461032 1.354577,-1.459759 z" /><path
     id="rect566"
     style="opacity:0.96;fill:#ffffff;fill-opacity:1;stroke:none;stroke-width:0.558943;stroke-opacity:1"
     d="m 51.740777,51.962249 60.772813,0.103343 c 0.74925,0.0013 1.3515,0.654373 1.35032,1.464358 l -0.009,6.213892 c -0.001,0.809978 -0.60532,1.461032 -1.35458,1.459758 L 51.727481,61.100258 c -0.749255,-0.0013 -1.3515,-0.65438 -1.350322,-1.464358 l 0.009,-6.213892 c 0.0012,-0.809984 0.605321,-1.461033 1.354576,-1.459759 z" /><path
     id="rect568"
     style="opacity:0.96;fill:#ffffff;fill-opacity:1;stroke:none;stroke-width:0.558943;stroke-opacity:1"
     d="m 119.64815,52.077724 7.74033,0.01316 c 0.74925,0.0013 1.3515,0.654374 1.35032,1.464358 l -0.009,6.213892 c -0.001,0.809978 -0.60532,1.461032 -1.35458,1.459758 l -7.74032,-0.01316 c -0.74926,-0.0013 -1.3515,-0.654379 -1.35032,-1.464358 l 0.009,-6.213892 c 10e-4,-0.809984 0.60531,-1.461032 1.35457,-1.459758 z" /><path
     id="rect570"
     style="opacity:0.96;fill:#ffffff;fill-opacity:1;stroke:none;stroke-width:0.558943;stroke-opacity:1"
     d="m 133.48555,52.101254 8.33811,0.01418 c 0.74926,0.0013 1.3515,0.654373 1.35032,1.464357 l -0.009,6.213893 c -0.001,0.809978 -0.60532,1.461032 -1.35457,1.459758 l -8.33812,-0.01418 c -0.74926,-0.0013 -1.3515,-0.654379 -1.35032,-1.464358 l 0.009,-6.213892 c 0.001,-0.809984 0.60532,-1.461032 1.35458,-1.459758 z" /><path
     id="rect572"
     style="opacity:0.96;fill:#ffffff;fill-opacity:1;stroke:none;stroke-width:0.558943;stroke-opacity:1"
     d="m 158.861,52.433989 11.01743,0.01873 c 0.74925,0.0013 1.3515,0.654373 1.35032,1.464358 l -0.009,6.213892 c -0.001,0.809978 -0.60533,1.461032 -1.35458,1.459758 l -11.01743,-0.01873 c -0.74926,-0.0013 -1.3515,-0.654379 -1.35032,-1.464358 l 0.009,-6.213892 c 0.001,-0.809984 0.60532,-1.461032 1.35458,-1.459758 z" /><path
     id="rect3364"
     style="color:#000000;text-indent:0;text-transform:none;fill:#ffffff;fill-opacity:1;stroke:none;stroke-width:0.91421;stroke-opacity:1"
     d="M 7.2476384,0.52803514 C 3.5800564,0.52635344 0.55937823,3.0469591 0.55788354,6.1415266 L 0.52982313,60.439192 c -0.001644,3.094778 3.01629377,5.617275 6.68377607,5.618957 L 218.8225,66.138614 c 3.66753,0.0017 6.65687,-2.518966 6.65837,-5.613912 l 0.028,-54.2976655 c 0.002,-3.0947777 -2.98516,-5.61727528 -6.65289,-5.61853655 L 7.2770241,0.38567561 Z M 7.2463928,2.8375042 218.85529,2.9179817 c 2.19083,8.408e-4 3.91805,1.4594993 3.9171,3.3081005 l -0.0288,54.2976648 c -0.001,1.848686 -1.72961,3.306167 -3.92048,3.305368 L 7.2142569,63.748646 C 5.023483,63.747805 3.2962637,62.289189 3.2972104,60.440504 L 3.3252757,6.1428384 C 3.3262722,4.2942372 5.0549862,2.83684 7.2457601,2.8375967 Z" /><metadata
     id="metadata1"><rdf:RDF><cc:Work><dc:format>image/svg+xml</dc:format><dc:type
           rdf:resource="http://purl.org/dc/dcmitype/StillImage" /><cc:license
           rdf:resource="http://creativecommons.org/publicdomain/zero/1.0/" /><dc:publisher><cc:Agent
             rdf:about="http://openclipart.org/"><dc:title>Openclipart</dc:title></cc:Agent></dc:publisher><dc:title>keyboard</dc:title></cc:Work><cc:License
         rdf:about="http://creativecommons.org/publicdomain/zero/1.0/"><cc:permits
           rdf:resource="http://creativecommons.org/ns#Reproduction" /><cc:permits
           rdf:resource="http://creativecommons.org/ns#Distribution" /><cc:permits
           rdf:resource="http://creativecommons.org/ns#DerivativeWorks" /></cc:License></rdf:RDF></metadata><path
     stroke="none"
     fill="#ffffff"
     d="m 254.54384,11.753568 h 10 q 1.75,0 2.9,0.6 2.1,1.15 2.1,4.4 v 10 h -11 v -6 q 0,-2.5 -1.75,-4.25 -1,-1 -2.25,-1.4 v -3.35 m -4.1,6.9 q 0.85,-0.9 2.1,-0.9 1.25,0 2.15,0.9 0.85,0.85 0.85,2.1 v 8 l -0.15,1 -0.7,1.15 q -0.9,0.85 -2.15,0.85 -1.25,0 -2.1,-0.85 -0.5,-0.5 -0.7,-1.15 l -0.2,-1 v -8 q 0,-1.25 0.9,-2.1 m -14.9,11.1 h 11.1 q 0.25,1.85 1.65,3.25 1.75,1.75 4.25,1.75 2.5,0 4.25,-1.75 1.4,-1.4 1.7,-3.25 h 11.05 v 9.5 q -0.2,6.75 -5,11.5 -4.75,4.799996 -11.5,4.999996 h -1 q -6.75,-0.2 -11.55,-4.999996 -4.75,-4.75 -4.95,-11.5 v -9.5 m 5,-18 h 10 v 3.35 q -1.25,0.4 -2.25,1.4 -1.75,1.75 -1.75,4.25 v 6 h -11 v -10 q 0,-3.25 2.15,-4.4 1.1,-0.6 2.85,-0.6"
     id="path1" /><path
     id="rect454-2"
     style="opacity:0.96;fill:#ffffff;fill-opacity:1;stroke:none;stroke-width:0.558943;stroke-opacity:1"
     d="m 53.982685,79.710122 5.748045,0.0098 c 0.74926,0.0013 1.3515,0.654374 1.350322,1.464358 l -0.009,6.213893 c -0.0012,0.809978 -0.605316,1.461032 -1.354577,1.459758 l -5.748044,-0.0098 c -0.749255,-0.0013 -1.3515,-0.65438 -1.350322,-1.464358 l 0.009,-6.213893 c 0.0011,-0.809954 0.605281,-1.461002 1.354536,-1.459728 z" /><path
     id="rect456-5"
     style="opacity:0.96;fill:#ffffff;fill-opacity:1;stroke:none;stroke-width:0.558943;stroke-opacity:1"
     d="m 64.239749,79.727564 5.748044,0.0098 c 0.749256,0.0013 1.351501,0.654374 1.350322,1.464358 l -0.009,6.213893 c -0.0012,0.809978 -0.605322,1.461032 -1.354577,1.459758 l -5.748044,-0.0098 c -0.749256,-0.0013 -1.351501,-0.654379 -1.350322,-1.464357 l 0.009,-6.213893 c 0.0012,-0.809955 0.605322,-1.461003 1.354577,-1.459729 z" /><path
     id="rect458-2"
     style="opacity:0.96;fill:#ffffff;fill-opacity:1;stroke:none;stroke-width:0.558943;stroke-opacity:1"
     d="m 75.281693,79.74634 5.748045,0.0098 c 0.749255,0.0013 1.3515,0.654374 1.350322,1.464358 l -0.009,6.213893 c -0.0012,0.809978 -0.605321,1.461032 -1.354577,1.459758 l -5.748044,-0.0098 c -0.74926,-0.0013 -1.3515,-0.65438 -1.350322,-1.464358 l 0.009,-6.213893 c 0.0012,-0.809984 0.605316,-1.461032 1.354576,-1.459758 z" /><path
     id="rect460-0"
     style="opacity:0.96;fill:#ffffff;fill-opacity:1;stroke:none;stroke-width:0.558943;stroke-opacity:1"
     d="m 85.936573,79.764459 5.748045,0.0098 c 0.74926,0.0013 1.3515,0.654373 1.350322,1.464357 l -0.009,6.213893 c -0.0012,0.809979 -0.605316,1.461033 -1.354577,1.459759 l -5.748044,-0.0098 c -0.749255,-0.0013 -1.351501,-0.654379 -1.350322,-1.464358 l 0.009,-6.213893 c 0.0012,-0.809984 0.605321,-1.461032 1.354576,-1.459758 z" /><path
     id="rect462-2"
     style="opacity:0.96;fill:#ffffff;fill-opacity:1;stroke:none;stroke-width:0.558943;stroke-opacity:1"
     d="m 97.370942,79.783902 5.748048,0.0098 c 0.74926,0.0013 1.3515,0.654374 1.35032,1.464358 l -0.009,6.213893 c -0.001,0.809978 -0.60532,1.461032 -1.35457,1.459758 l -5.748053,-0.0098 c -0.749256,-0.0013 -1.351501,-0.65438 -1.350322,-1.464358 l 0.009,-6.213893 c 0.0012,-0.809984 0.605322,-1.461032 1.354577,-1.459758 z" /><path
     id="rect464-2"
     style="opacity:0.96;fill:#ffffff;fill-opacity:1;stroke:none;stroke-width:0.558943;stroke-opacity:1"
     d="m 107.62801,79.801344 5.74804,0.0098 c 0.74926,0.0013 1.3515,0.654374 1.35033,1.464358 l -0.009,6.213893 c -0.001,0.809978 -0.60532,1.461032 -1.35458,1.459758 l -5.74805,-0.0098 c -0.74925,-0.0013 -1.35149,-0.65438 -1.35032,-1.464358 l 0.009,-6.213893 c 10e-4,-0.809984 0.60532,-1.461032 1.35458,-1.459758 z" /><path
     id="rect466-7"
     style="opacity:0.96;fill:#ffffff;fill-opacity:1;stroke:none;stroke-width:0.558943;stroke-opacity:1"
     d="m 119.46558,79.821474 5.74805,0.0098 c 0.74925,0.0013 1.3515,0.654373 1.35032,1.464358 l -0.009,6.213892 c -0.001,0.809979 -0.60532,1.461033 -1.35458,1.459759 l -5.74804,-0.0098 c -0.74926,-0.0013 -1.35151,-0.654379 -1.35033,-1.464358 l 0.009,-6.213892 c 10e-4,-0.809985 0.60533,-1.461033 1.35458,-1.459759 z" /><path
     id="rect468-0"
     style="opacity:0.96;fill:#ffffff;fill-opacity:1;stroke:none;stroke-width:0.558943;stroke-opacity:1"
     d="m 130.50751,79.84025 5.74804,0.0098 c 0.74926,0.0013 1.3515,0.654374 1.35033,1.464358 l -0.009,6.213893 c -0.001,0.809978 -0.60532,1.461032 -1.35457,1.459758 l -5.74805,-0.0098 c -0.74926,-0.0013 -1.3515,-0.65438 -1.35032,-1.464358 l 0.009,-6.213893 c 0.001,-0.809984 0.60532,-1.461032 1.35458,-1.459758 z" /><path
     id="rect470-8"
     style="opacity:0.96;fill:#ffffff;fill-opacity:1;stroke:none;stroke-width:0.558943;stroke-opacity:1"
     d="m 142.34508,79.860379 5.74804,0.0098 c 0.74926,0.0013 1.3515,0.654374 1.35032,1.464358 l -0.009,6.213893 c -0.001,0.809979 -0.60532,1.461033 -1.35458,1.459759 l -5.74804,-0.0098 c -0.74926,-0.0013 -1.3515,-0.654379 -1.35032,-1.464358 l 0.009,-6.213893 c 0.001,-0.809984 0.60532,-1.461032 1.35458,-1.459758 z" /><path
     id="rect472-4"
     style="opacity:0.96;fill:#ffffff;fill-opacity:1;stroke:none;stroke-width:0.558943;stroke-opacity:1"
     d="m 153.387,79.879156 5.74805,0.0098 c 0.74925,0.0013 1.3515,0.654374 1.35032,1.464358 l -0.009,6.213893 c -0.001,0.809978 -0.60532,1.461032 -1.35458,1.459758 l -5.74804,-0.0098 c -0.74926,-0.0013 -1.3515,-0.65438 -1.35032,-1.464358 l 0.009,-6.213893 c 0.001,-0.809984 0.60531,-1.461033 1.35457,-1.459758 z" /><path
     id="rect474-2"
     style="opacity:0.96;fill:#ffffff;fill-opacity:1;stroke:none;stroke-width:0.558943;stroke-opacity:1"
     d="m 165.22457,79.899285 5.74805,0.0098 c 0.74926,0.0013 1.3515,0.654374 1.35032,1.464358 l -0.009,6.213893 c -0.001,0.809978 -0.60532,1.461033 -1.35458,1.459758 l -5.74805,-0.0098 c -0.74925,-0.0013 -1.3515,-0.65438 -1.35032,-1.464358 l 0.009,-6.213893 c 0.001,-0.809984 0.60533,-1.461032 1.35458,-1.459758 z" /><path
     id="rect476-1"
     style="opacity:0.96;fill:#ffffff;fill-opacity:1;stroke:none;stroke-width:0.558943;stroke-opacity:1"
     d="m 176.2665,79.918062 5.74804,0.0098 c 0.74926,0.0013 1.3515,0.654374 1.35033,1.464358 l -0.009,6.213893 c -0.001,0.809978 -0.60531,1.461032 -1.35457,1.459758 l -5.74805,-0.0098 c -0.74925,-0.0013 -1.3515,-0.65438 -1.35032,-1.464358 l 0.009,-6.213893 c 10e-4,-0.809984 0.60532,-1.461033 1.35458,-1.459759 z" /><path
     id="rect478-9"
     style="opacity:0.96;fill:#ffffff;fill-opacity:1;stroke:none;stroke-width:0.558943;stroke-opacity:1"
     d="m 188.10407,79.938191 5.74804,0.0098 c 0.74927,0.0013 1.35151,0.654374 1.35033,1.464358 l -0.009,6.213893 c -0.001,0.809978 -0.60532,1.461032 -1.35458,1.459758 l -5.74805,-0.0098 c -0.74925,-0.0013 -1.3515,-0.65438 -1.35032,-1.464358 l 0.009,-6.213893 c 0.001,-0.809984 0.60533,-1.461032 1.35458,-1.459758 z" /><path
     id="rect480-0"
     style="opacity:0.96;fill:#ffffff;fill-opacity:1;stroke:none;stroke-width:0.558943;stroke-opacity:1"
     d="m 199.5438,79.957644 16.59592,0.02822 c 0.74926,0.0013 1.3515,0.654374 1.35032,1.464358 l -0.009,6.213892 c -0.001,0.809979 -0.60532,1.461033 -1.35458,1.459759 l -16.59591,-0.02822 c -0.74926,-0.0013 -1.3515,-0.65438 -1.35032,-1.464358 l 0.009,-6.213892 c 0.001,-0.809985 0.60532,-1.461033 1.35457,-1.459759 z" /><path
     id="rect482-3"
     style="opacity:0.96;fill:#ffffff;fill-opacity:1;stroke:none;stroke-width:0.558943;stroke-opacity:1"
     d="m 53.981901,91.333157 11.665212,0.01984 c 0.74926,0.0013 1.3515,0.654374 1.350322,1.464358 l -0.009,6.213892 c -0.0012,0.809979 -0.605316,1.461033 -1.354577,1.459763 l -11.665254,-0.0198 c -0.749255,-0.001 -1.3515,-0.654383 -1.350322,-1.464361 l 0.009,-6.213893 c 0.0012,-0.809984 0.605322,-1.461032 1.354577,-1.459758 z" /><path
     id="rect484-1"
     style="opacity:0.96;fill:#ffffff;fill-opacity:1;stroke:none;stroke-width:0.558943;stroke-opacity:1"
     d="m 70.297511,91.360901 5.748044,0.0098 c 0.749255,0.0013 1.351501,0.654373 1.350322,1.464358 l -0.009,6.213892 c -0.0012,0.809978 -0.605321,1.461029 -1.354576,1.459759 l -5.748045,-0.01 c -0.74926,-0.001 -1.3515,-0.654381 -1.350322,-1.464359 l 0.009,-6.213892 c 0.0012,-0.809985 0.605316,-1.461033 1.354577,-1.459758 z" /><path
     id="rect486-8"
     style="opacity:0.96;fill:#ffffff;fill-opacity:1;stroke:none;stroke-width:0.558943;stroke-opacity:1"
     d="m 81.339455,91.379678 5.748044,0.0098 c 0.749256,0.0013 1.351501,0.654374 1.350322,1.464358 l -0.009,6.213892 c -0.0012,0.809979 -0.605322,1.461032 -1.354577,1.459762 l -5.748044,-0.01 c -0.749261,-0.001 -1.351501,-0.654382 -1.350322,-1.464361 l 0.009,-6.213892 c 0.0012,-0.809984 0.605316,-1.461032 1.354577,-1.459759 z" /><path
     id="rect488-6"
     style="opacity:0.96;fill:#ffffff;fill-opacity:1;stroke:none;stroke-width:0.558943;stroke-opacity:1"
     d="m 91.994335,91.397796 5.748044,0.0098 c 0.749261,0.0013 1.351501,0.654374 1.350322,1.464358 l -0.009,6.213893 c -0.0012,0.809978 -0.605317,1.461033 -1.354577,1.459763 l -5.748044,-0.01 c -0.749256,-0.001 -1.351501,-0.654384 -1.350322,-1.464362 l 0.009,-6.213893 c 0.0012,-0.809984 0.605322,-1.461032 1.354577,-1.459758 z" /><path
     id="rect490-9"
     style="opacity:0.96;fill:#ffffff;fill-opacity:1;stroke:none;stroke-width:0.558943;stroke-opacity:1"
     d="m 103.43409,91.417249 5.74804,0.0098 c 0.74926,0.0013 1.3515,0.654374 1.35033,1.464358 l -0.009,6.213892 c -0.001,0.809979 -0.60533,1.461031 -1.35458,1.459761 l -5.74805,-0.01 c -0.74925,-0.001 -1.3515,-0.654381 -1.35032,-1.46436 l 0.009,-6.213892 c 0.001,-0.809984 0.60532,-1.461032 1.35458,-1.459759 z" /><path
     id="rect492-1"
     style="opacity:0.96;fill:#ffffff;fill-opacity:1;stroke:none;stroke-width:0.558943;stroke-opacity:1"
     d="m 113.69115,91.434691 5.74805,0.0098 c 0.74925,0.0013 1.3515,0.654374 1.35032,1.464358 l -0.009,6.213892 c -10e-4,0.809979 -0.60532,1.461029 -1.35458,1.459759 l -5.74804,-0.01 c -0.74926,-0.001 -1.3515,-0.654379 -1.35032,-1.464358 l 0.009,-6.213892 c 0.001,-0.809984 0.60531,-1.461032 1.35457,-1.459759 z" /><path
     id="rect494-7"
     style="opacity:0.96;fill:#ffffff;fill-opacity:1;stroke:none;stroke-width:0.558943;stroke-opacity:1"
     d="m 125.52334,91.454811 5.74805,0.0098 c 0.74925,0.0013 1.3515,0.654374 1.35032,1.464358 l -0.009,6.213893 c -0.001,0.809978 -0.60532,1.461028 -1.35458,1.459758 l -5.74804,-0.01 c -0.74926,-0.001 -1.3515,-0.654379 -1.35032,-1.464357 l 0.009,-6.213893 c 0.001,-0.809984 0.60531,-1.461032 1.35457,-1.459758 z" /><path
     id="rect496-2"
     style="opacity:0.96;fill:#ffffff;fill-opacity:1;stroke:none;stroke-width:0.558943;stroke-opacity:1"
     d="m 136.56529,91.473588 5.74804,0.0098 c 0.74926,0.0013 1.3515,0.654374 1.35032,1.464358 l -0.009,6.213892 c -0.001,0.809978 -0.60532,1.461032 -1.35457,1.459762 l -5.74805,-0.01 c -0.74926,-0.001 -1.3515,-0.654384 -1.35032,-1.464362 l 0.009,-6.213892 c 0.001,-0.809984 0.60532,-1.461033 1.35458,-1.459758 z" /><path
     id="rect498-1"
     style="opacity:0.96;fill:#ffffff;fill-opacity:1;stroke:none;stroke-width:0.558943;stroke-opacity:1"
     d="m 148.40284,91.493717 5.74804,0.0098 c 0.74926,0.0013 1.3515,0.654374 1.35032,1.464358 l -0.009,6.213892 c -0.001,0.809979 -0.60532,1.461033 -1.35457,1.459763 l -5.74805,-0.01 c -0.74926,-0.001 -1.3515,-0.654383 -1.35032,-1.464362 l 0.009,-6.213892 c 0.001,-0.809984 0.60532,-1.461032 1.35458,-1.459759 z" /><path
     id="rect500-9"
     style="opacity:0.96;fill:#ffffff;fill-opacity:1;stroke:none;stroke-width:0.558943;stroke-opacity:1"
     d="m 159.44476,91.512493 5.74805,0.0098 c 0.74926,0.0013 1.3515,0.654374 1.35032,1.464358 l -0.009,6.213892 c -0.001,0.809977 -0.60532,1.461037 -1.35458,1.459757 l -5.74805,-0.01 c -0.74925,-0.001 -1.3515,-0.654379 -1.35032,-1.464357 l 0.009,-6.213892 c 0.001,-0.809984 0.60533,-1.461033 1.35458,-1.459758 z" /><path
     id="rect502-0"
     style="opacity:0.96;fill:#ffffff;fill-opacity:1;stroke:none;stroke-width:0.558943;stroke-opacity:1"
     d="m 171.28233,91.532623 5.74805,0.0098 c 0.74926,0.0013 1.3515,0.654374 1.35032,1.464358 l -0.009,6.213892 c -0.001,0.809977 -0.60532,1.461037 -1.35458,1.459757 l -5.74804,-0.01 c -0.74926,-0.001 -1.3515,-0.65438 -1.35033,-1.464356 l 0.009,-6.213892 c 0.001,-0.809984 0.60532,-1.461032 1.35457,-1.459758 z" /><path
     id="rect504-6"
     style="opacity:0.96;fill:#ffffff;fill-opacity:1;stroke:none;stroke-width:0.558943;stroke-opacity:1"
     d="m 182.32426,91.551399 5.74805,0.0098 c 0.74925,0.0013 1.3515,0.654373 1.35032,1.464358 l -0.009,6.213892 c -0.001,0.809981 -0.60533,1.461031 -1.35458,1.459761 l -5.74805,-0.01 c -0.74925,-0.001 -1.3515,-0.65438 -1.35032,-1.464361 l 0.009,-6.213892 c 10e-4,-0.809985 0.60533,-1.461033 1.35458,-1.459758 z" /><path
     id="rect506-1"
     style="opacity:0.96;fill:#ffffff;fill-opacity:1;stroke:none;stroke-width:0.558943;stroke-opacity:1"
     d="m 194.16183,91.571529 5.74805,0.0098 c 0.74925,0.0013 1.3515,0.654374 1.35032,1.464358 l -0.009,6.213892 c -0.001,0.809981 -0.60532,1.461031 -1.35458,1.459761 l -5.74804,-0.01 c -0.74926,-0.001 -1.3515,-0.65438 -1.35033,-1.46436 l 0.009,-6.213892 c 10e-4,-0.809984 0.60532,-1.461032 1.35457,-1.459758 z" /><path
     id="rect508-7"
     style="opacity:0.96;fill:#ffffff;fill-opacity:1;stroke:none;stroke-width:0.558943;stroke-opacity:1"
     d="m 205.74138,91.591219 10.81959,0.0184 c 0.74926,0.0013 1.3515,0.654374 1.35032,1.464358 l -0.009,6.213892 c -0.001,0.809981 -0.60532,1.461031 -1.35458,1.459761 l -10.81959,-0.0184 c -0.74926,-0.001 -1.3515,-0.65438 -1.35032,-1.464361 l 0.009,-6.213892 c 0.001,-0.809984 0.60532,-1.461033 1.35458,-1.459758 z" /><path
     id="rect510-6"
     style="opacity:0.96;fill:#ffffff;fill-opacity:1;stroke:none;stroke-width:0.558943;stroke-opacity:1"
     d="m 53.981116,102.95619 13.518258,0.023 c 0.749255,0.001 1.3515,0.65438 1.350322,1.46436 l -0.009,6.21389 c -0.0012,0.80998 -0.605321,1.46104 -1.354577,1.45976 l -13.518299,-0.023 c -0.749255,-0.001 -1.351501,-0.65438 -1.350322,-1.46436 l 0.009,-6.21389 c 0.0012,-0.80998 0.605321,-1.46103 1.354576,-1.45976 z" /><path
     id="rect512-7"
     style="opacity:0.96;fill:#ffffff;fill-opacity:1;stroke:none;stroke-width:0.558943;stroke-opacity:1"
     d="m 72.796494,102.98819 5.748044,0.01 c 0.749256,0.001 1.351501,0.65437 1.350322,1.46436 l -0.009,6.21389 c -0.0012,0.80998 -0.605322,1.46103 -1.354577,1.45976 l -5.748044,-0.01 c -0.749255,-0.001 -1.351501,-0.65438 -1.350322,-1.46436 l 0.009,-6.21389 c 0.0012,-0.80999 0.605322,-1.46104 1.354577,-1.45976 z" /><path
     id="rect514-4"
     style="opacity:0.96;fill:#ffffff;fill-opacity:1;stroke:none;stroke-width:0.558943;stroke-opacity:1"
     d="m 83.849185,103.00698 5.748044,0.01 c 0.749255,0.001 1.351501,0.65438 1.350322,1.46436 l -0.009,6.21389 c -0.0012,0.80998 -0.605321,1.46103 -1.354576,1.45976 l -5.748045,-0.01 c -0.74926,-0.001 -1.3515,-0.65438 -1.350322,-1.46436 l 0.009,-6.21389 c 0.0012,-0.80998 0.605316,-1.46103 1.354577,-1.45976 z" /><path
     id="rect516-5"
     style="opacity:0.96;fill:#ffffff;fill-opacity:1;stroke:none;stroke-width:0.558943;stroke-opacity:1"
     d="m 94.692208,103.02542 5.748042,0.01 c 0.74926,0.001 1.35151,0.65437 1.35033,1.46436 l -0.009,6.21389 c -0.001,0.80998 -0.60532,1.46103 -1.35458,1.45976 l -5.748047,-0.01 c -0.749255,-0.001 -1.3515,-0.65438 -1.350322,-1.46436 l 0.009,-6.21389 c 0.0012,-0.80998 0.605321,-1.46103 1.354577,-1.45976 z" /><path
     id="rect518-3"
     style="opacity:0.96;fill:#ffffff;fill-opacity:1;stroke:none;stroke-width:0.558943;stroke-opacity:1"
     d="m 105.546,103.04388 5.74804,0.01 c 0.74926,0.001 1.3515,0.65437 1.35032,1.46435 l -0.009,6.2139 c -0.001,0.80997 -0.60531,1.46103 -1.35457,1.45975 l -5.74805,-0.01 c -0.74925,-0.001 -1.3515,-0.65438 -1.35032,-1.46435 l 0.009,-6.2139 c 0.001,-0.80998 0.60532,-1.46103 1.35458,-1.45975 z" /><path
     id="rect520-3"
     style="opacity:0.96;fill:#ffffff;fill-opacity:1;stroke:none;stroke-width:0.558943;stroke-opacity:1"
     d="m 116.58794,103.06265 5.74805,0.01 c 0.74925,0.001 1.3515,0.65438 1.35032,1.46436 l -0.009,6.21389 c -0.001,0.80998 -0.60532,1.46104 -1.35458,1.45976 l -5.74804,-0.01 c -0.74926,-0.001 -1.3515,-0.65438 -1.35033,-1.46436 l 0.009,-6.21389 c 10e-4,-0.80998 0.60533,-1.46103 1.35458,-1.45976 z" /><path
     id="rect522-2"
     style="opacity:0.96;fill:#ffffff;fill-opacity:1;stroke:none;stroke-width:0.558943;stroke-opacity:1"
     d="m 128.02769,103.08211 5.74804,0.01 c 0.74926,0.001 1.35151,0.65437 1.35033,1.46435 l -0.009,6.2139 c -0.001,0.80998 -0.60533,1.46103 -1.35458,1.45976 l -5.74804,-0.01 c -0.74926,-0.001 -1.35151,-0.65438 -1.35033,-1.46436 l 0.009,-6.21389 c 0.001,-0.80999 0.60533,-1.46104 1.35458,-1.45976 z" /><path
     id="rect524-1"
     style="opacity:0.96;fill:#ffffff;fill-opacity:1;stroke:none;stroke-width:0.558943;stroke-opacity:1"
     d="m 139.46744,103.10156 5.74804,0.01 c 0.74926,0.001 1.3515,0.65437 1.35032,1.46436 l -0.009,6.21389 c -0.001,0.80998 -0.60532,1.46103 -1.35457,1.45976 l -5.74805,-0.01 c -0.74925,-0.001 -1.3515,-0.65438 -1.35032,-1.46436 l 0.009,-6.21389 c 10e-4,-0.80999 0.60532,-1.46103 1.35458,-1.45976 z" /><path
     id="rect526-8"
     style="opacity:0.96;fill:#ffffff;fill-opacity:1;stroke:none;stroke-width:0.558943;stroke-opacity:1"
     d="m 150.90719,103.12101 5.74804,0.01 c 0.74926,0.001 1.3515,0.65438 1.35032,1.46436 l -0.009,6.21389 c -0.001,0.80998 -0.60532,1.46104 -1.35458,1.45976 l -5.74804,-0.01 c -0.74926,-0.001 -1.3515,-0.65438 -1.35032,-1.46436 l 0.009,-6.21389 c 0.001,-0.80998 0.60532,-1.46103 1.35458,-1.45976 z" /><path
     id="rect528-0"
     style="opacity:0.96;fill:#ffffff;fill-opacity:1;stroke:none;stroke-width:0.558943;stroke-opacity:1"
     d="m 161.9545,103.1398 5.74804,0.01 c 0.74926,0.001 1.3515,0.65437 1.35032,1.46436 l -0.009,6.21389 c -0.001,0.80998 -0.60532,1.46103 -1.35458,1.45976 l -5.74804,-0.01 c -0.74926,-0.001 -1.3515,-0.65438 -1.35032,-1.46436 l 0.009,-6.21389 c 0.001,-0.80999 0.60532,-1.46104 1.35458,-1.45976 z" /><path
     id="rect530-8"
     style="opacity:0.96;fill:#ffffff;fill-opacity:1;stroke:none;stroke-width:0.558943;stroke-opacity:1"
     d="m 172.99645,103.15857 5.74805,0.01 c 0.74926,0.001 1.3515,0.65438 1.35032,1.46436 l -0.009,6.21389 c -0.001,0.80998 -0.60532,1.46104 -1.35458,1.45976 l -5.74805,-0.01 c -0.74925,-0.001 -1.3515,-0.65438 -1.35032,-1.46435 l 0.009,-6.2139 c 10e-4,-0.80998 0.60533,-1.46103 1.35458,-1.45975 z" /><g
     id="g1"
     style="fill:#e7324f;fill-opacity:1"
     transform="translate(-54.802744,-73.945111)"><path
       id="rect480-0-75"
       style="opacity:0.96;fill:#e7324f;fill-opacity:1;stroke:none;stroke-width:0.56781;stroke-opacity:1"
       d="m 274.35637,93.390265 -0.0282,17.126645 c -10e-4,0.77322 -0.65437,1.39471 -1.46436,1.3935 l -6.21389,-0.01 c -0.80998,-9.5e-4 -1.46103,-0.62467 -1.45976,-1.39789 l 0.0282,-17.126636 c 10e-4,-0.773221 0.65438,-1.394719 1.46436,-1.393502 l 6.21389,0.0093 c 0.80999,0.0011 1.46103,0.624677 1.45976,1.397888 z" /><path
       id="rect480-0-75-8"
       style="opacity:0.96;fill:#e7324f;fill-opacity:1;stroke:none;stroke-width:0.570005;stroke-opacity:1"
       d="m 274.46124,116.68764 -0.0282,17.25933 c -0.001,0.77921 -0.65437,1.40551 -1.46436,1.40429 l -6.21389,-0.01 c -0.80998,-9.6e-4 -1.46103,-0.62951 -1.45976,-1.40872 l 0.0282,-17.25931 c 10e-4,-0.77922 0.65438,-1.40552 1.46436,-1.4043 l 6.21389,0.01 c 0.80999,9.6e-4 1.46103,0.62951 1.45976,1.40871 z" /><path
       id="rect480-0-7"
       style="opacity:0.96;fill:#e7324f;fill-opacity:1;stroke:none;stroke-width:0.558943;stroke-opacity:1"
       d="m 235.25208,126.43405 16.59592,0.0282 c 0.74926,0.001 1.3515,0.65438 1.35032,1.46436 l -0.009,6.21389 c -0.001,0.80998 -0.60532,1.46104 -1.35458,1.45976 l -16.59591,-0.0282 c -0.74926,-0.001 -1.3515,-0.65438 -1.35032,-1.46435 l 0.009,-6.2139 c 10e-4,-0.80998 0.60532,-1.46103 1.35457,-1.45976 z" /><path
       id="rect532-3"
       style="opacity:0.96;fill:#e7324f;fill-opacity:1;stroke:none;stroke-width:0.558943;stroke-opacity:1"
       d="m 235.25438,103.20997 5.74804,0.01 c 0.74927,10e-4 1.35151,0.65438 1.35033,1.46436 l -0.009,6.21389 c -0.001,0.80998 -0.60532,1.46104 -1.35458,1.45976 l -5.74805,-0.01 c -0.74925,-0.001 -1.3515,-0.65438 -1.35032,-1.46436 l 0.009,-6.21389 c 0.001,-0.80998 0.60533,-1.46103 1.35458,-1.45976 z" /><path
       id="rect532-3-2"
       style="opacity:0.96;fill:#e7324f;fill-opacity:1;stroke:none;stroke-width:0.558943;stroke-opacity:1"
       d="m 235.25438,91.595419 5.74804,0.01 c 0.74927,0.001 1.35151,0.65438 1.35033,1.46436 l -0.009,6.213891 c -0.001,0.80998 -0.60532,1.46104 -1.35458,1.45976 l -5.74805,-0.01 c -0.74925,-0.001 -1.3515,-0.65438 -1.35032,-1.46436 l 0.009,-6.213891 c 0.001,-0.80998 0.60533,-1.46103 1.35458,-1.45976 z" /><path
       id="rect532-3-7"
       style="opacity:0.96;fill:#e7324f;fill-opacity:1;stroke:none;stroke-width:0.558943;stroke-opacity:1"
       d="m 235.25438,79.966753 5.74804,0.01 c 0.74927,0.001 1.35151,0.65438 1.35033,1.46436 l -0.009,6.21389 c -0.001,0.80998 -0.60532,1.46104 -1.35458,1.45976 l -5.74805,-0.01 c -0.74925,-0.001 -1.3515,-0.65438 -1.35032,-1.46436 l 0.009,-6.21389 c 0.001,-0.80998 0.60533,-1.46103 1.35458,-1.45976 z" /><path
       id="rect532-3-9"
       style="opacity:0.96;fill:#e7324f;fill-opacity:1;stroke:none;stroke-width:0.558943;stroke-opacity:1"
       d="m 245.61229,103.20997 5.74804,0.01 c 0.74927,10e-4 1.35151,0.65438 1.35033,1.46436 l -0.009,6.21389 c -0.001,0.80998 -0.60532,1.46104 -1.35458,1.45976 l -5.74805,-0.01 c -0.74925,-0.001 -1.3515,-0.65438 -1.35032,-1.46436 l 0.009,-6.21389 c 0.001,-0.80998 0.60533,-1.46103 1.35458,-1.45976 z" /><path
       id="rect532-3-2-6"
       style="opacity:0.96;fill:#e7324f;fill-opacity:1;stroke:none;stroke-width:0.558943;stroke-opacity:1"
       d="m 245.61229,91.59542 5.74804,0.01 c 0.74927,0.001 1.35151,0.65438 1.35033,1.46436 l -0.009,6.213888 c -0.001,0.809982 -0.60532,1.461042 -1.35458,1.459762 l -5.74805,-0.01 c -0.74925,-0.001 -1.3515,-0.65438 -1.35032,-1.464362 l 0.009,-6.213888 c 0.001,-0.80998 0.60533,-1.46103 1.35458,-1.45976 z" /><path
       id="rect532-3-7-8"
       style="opacity:0.96;fill:#e7324f;fill-opacity:1;stroke:none;stroke-width:0.558943;stroke-opacity:1"
       d="m 245.61229,79.966754 5.74804,0.01 c 0.74927,0.001 1.35151,0.65438 1.35033,1.46436 l -0.009,6.213888 c -0.001,0.80998 -0.60532,1.46104 -1.35458,1.45976 l -5.74805,-0.01 c -0.74925,-10e-4 -1.3515,-0.65438 -1.35032,-1.46436 l 0.009,-6.213888 c 0.001,-0.80998 0.60533,-1.46103 1.35458,-1.45976 z" /><path
       id="rect532-3-7-4"
       style="opacity:0.96;fill:#e7324f;fill-opacity:1;stroke:none;stroke-width:0.558943;stroke-opacity:1"
       d="m 235.25438,114.82781 5.74804,0.01 c 0.74927,10e-4 1.35151,0.65438 1.35033,1.46436 l -0.009,6.21389 c -0.001,0.80998 -0.60532,1.46104 -1.35458,1.45976 l -5.74805,-0.01 c -0.74925,-10e-4 -1.3515,-0.65438 -1.35032,-1.46436 l 0.009,-6.21389 c 0.001,-0.80998 0.60533,-1.46103 1.35458,-1.45976 z" /><path
       id="rect532-3-7-8-7"
       style="opacity:0.96;fill:#e7324f;fill-opacity:1;stroke:none;stroke-width:0.558943;stroke-opacity:1"
       d="m 245.61229,114.82781 5.74804,0.01 c 0.74927,10e-4 1.35151,0.65438 1.35033,1.46436 l -0.009,6.21389 c -0.001,0.80998 -0.60532,1.46104 -1.35458,1.45976 l -5.74805,-0.01 c -0.74925,-10e-4 -1.3515,-0.65438 -1.35032,-1.46436 l 0.009,-6.21389 c 0.001,-0.80998 0.60533,-1.46103 1.35458,-1.45976 z" /><path
       id="rect532-3-9-0"
       style="opacity:0.96;fill:#e7324f;fill-opacity:1;stroke:none;stroke-width:0.558943;stroke-opacity:1"
       d="m 256.10801,103.28438 5.74804,0.01 c 0.74927,10e-4 1.35151,0.65438 1.35033,1.46436 l -0.009,6.21389 c -0.001,0.80998 -0.60532,1.46105 -1.35458,1.45977 l -5.74805,-0.01 c -0.74925,-10e-4 -1.3515,-0.65439 -1.35032,-1.46437 l 0.009,-6.21389 c 0.001,-0.80998 0.60533,-1.46103 1.35458,-1.45976 z" /><path
       id="rect532-3-2-6-3"
       style="opacity:0.96;fill:#e7324f;fill-opacity:1;stroke:none;stroke-width:0.558943;stroke-opacity:1"
       d="m 256.10801,91.669834 5.74804,0.01 c 0.74927,0.001 1.35151,0.65438 1.35033,1.46436 l -0.009,6.213888 c -0.001,0.809978 -0.60532,1.461038 -1.35458,1.459758 l -5.74805,-0.01 c -0.74925,-0.001 -1.3515,-0.65438 -1.35032,-1.464358 l 0.009,-6.213888 c 0.001,-0.80998 0.60533,-1.46103 1.35458,-1.45976 z" /><path
       id="rect532-3-7-8-75"
       style="opacity:0.96;fill:#e7324f;fill-opacity:1;stroke:none;stroke-width:0.558943;stroke-opacity:1"
       d="m 256.10801,79.966754 5.74804,0.01 c 0.74927,0.001 1.35151,0.65438 1.35033,1.46436 l -0.009,6.213888 c -0.001,0.80998 -0.60532,1.46104 -1.35458,1.45976 l -5.74805,-0.01 c -0.74925,-10e-4 -1.3515,-0.65438 -1.35032,-1.46436 l 0.009,-6.213888 c 0.001,-0.80998 0.60533,-1.46103 1.35458,-1.45976 z" /><path
       id="rect532-3-7-8-75-5"
       style="opacity:0.96;fill:#e7324f;fill-opacity:1;stroke:none;stroke-width:0.558943;stroke-opacity:1"
       d="m 266.61915,79.966754 5.74804,0.01 c 0.74927,0.001 1.35151,0.65438 1.35033,1.46436 l -0.009,6.213888 c -0.001,0.80998 -0.60532,1.46104 -1.35458,1.45976 l -5.74805,-0.01 c -0.74925,-10e-4 -1.3515,-0.65438 -1.35032,-1.46436 l 0.009,-6.213888 c 0.001,-0.80998 0.60533,-1.46103 1.35458,-1.45976 z" /><path
       id="rect532-3-7-8-7-5"
       style="opacity:0.96;fill:#e7324f;fill-opacity:1;stroke:none;stroke-width:0.558943;stroke-opacity:1"
       d="m 256.10801,114.90223 5.74804,0.01 c 0.74927,0.001 1.35151,0.65438 1.35033,1.46436 l -0.009,6.21389 c -0.001,0.80998 -0.60532,1.46104 -1.35458,1.45976 l -5.74805,-0.01 c -0.74925,-10e-4 -1.3515,-0.65438 -1.35032,-1.46436 l 0.009,-6.21389 c 0.001,-0.80998 0.60533,-1.46103 1.35458,-1.45976 z" /><path
       id="rect532-3-7-8-7-5-9"
       style="opacity:0.96;fill:#e7324f;fill-opacity:1;stroke:none;stroke-width:0.558943;stroke-opacity:1"
       d="m 256.03425,126.24871 5.74804,0.01 c 0.74927,0.001 1.35151,0.65438 1.35033,1.46436 l -0.009,6.21389 c -0.001,0.80998 -0.60532,1.46104 -1.35458,1.45976 l -5.74805,-0.01 c -0.74925,-0.001 -1.3515,-0.65438 -1.35032,-1.46436 l 0.009,-6.21389 c 0.001,-0.80998 0.60533,-1.46103 1.35458,-1.45976 z" /></g><path
     id="rect534-5"
     style="opacity:0.96;fill:#ffffff;fill-opacity:1;stroke:none;stroke-width:0.558943;stroke-opacity:1"
     d="m 196.66618,103.19882 18.98655,0.0323 c 0.74925,0.001 1.3515,0.65438 1.35032,1.46436 l -0.009,6.21389 c -10e-4,0.80998 -0.60533,1.46104 -1.35458,1.45976 l -18.98655,-0.0323 c -0.74925,-0.001 -1.3515,-0.65438 -1.35032,-1.46436 l 0.009,-6.21389 c 0.001,-0.80998 0.60533,-1.46103 1.35458,-1.45976 z" /><path
     id="rect536-2"
     style="opacity:0.96;fill:#ffffff;fill-opacity:1;stroke:none;stroke-width:0.558943;stroke-opacity:1"
     d="m 53.985696,114.57924 18.300052,0.0311 c 0.749255,0.001 1.351501,0.65437 1.350322,1.46435 l -0.009,6.2139 c -0.0012,0.80998 -0.605322,1.46103 -1.354577,1.45976 L 53.9724,123.71725 c -0.749261,-0.001 -1.3515,-0.65438 -1.350322,-1.46436 l 0.009,-6.21389 c 0.0012,-0.80999 0.605316,-1.46104 1.354577,-1.45976 z" /><path
     id="rect538-3"
     style="opacity:0.96;fill:#ffffff;fill-opacity:1;stroke:none;stroke-width:0.558943;stroke-opacity:1"
     d="m 77.381286,114.61902 5.748044,0.01 c 0.749255,0.001 1.351501,0.65437 1.350322,1.46436 l -0.009,6.21389 c -0.0012,0.80998 -0.605321,1.46103 -1.354576,1.45976 l -5.748045,-0.01 c -0.74926,-0.001 -1.3515,-0.65438 -1.350322,-1.46436 l 0.009,-6.21389 c 0.0012,-0.80999 0.605316,-1.46104 1.354577,-1.45976 z" /><path
     id="rect540-0"
     style="opacity:0.96;fill:#ffffff;fill-opacity:1;stroke:none;stroke-width:0.558943;stroke-opacity:1"
     d="m 88.433971,114.63781 5.748044,0.01 c 0.749261,0.001 1.351501,0.65438 1.350322,1.46436 l -0.009,6.2139 c -0.0012,0.80997 -0.605316,1.46103 -1.354577,1.45975 l -5.748044,-0.01 c -0.749256,-0.001 -1.351501,-0.65438 -1.350322,-1.46435 l 0.009,-6.2139 c 0.0012,-0.80998 0.605322,-1.46103 1.354577,-1.45976 z" /><path
     id="rect542-0"
     style="opacity:0.96;fill:#ffffff;fill-opacity:1;stroke:none;stroke-width:0.558943;stroke-opacity:1"
     d="m 99.271634,114.65624 5.748046,0.01 c 0.74926,0.001 1.3515,0.65438 1.35032,1.46436 l -0.009,6.21389 c -0.001,0.80998 -0.60532,1.46104 -1.35457,1.45976 l -5.748051,-0.01 c -0.749255,-0.001 -1.351501,-0.65438 -1.350322,-1.46436 l 0.009,-6.21389 c 0.0012,-0.80998 0.605322,-1.46103 1.354577,-1.45976 z" /><path
     id="rect544-3"
     style="opacity:0.96;fill:#ffffff;fill-opacity:1;stroke:none;stroke-width:0.558943;stroke-opacity:1"
     d="m 110.12542,114.6747 5.74805,0.01 c 0.74925,0.001 1.3515,0.65437 1.35032,1.46436 l -0.009,6.21389 c -10e-4,0.80998 -0.60532,1.46103 -1.35458,1.45976 l -5.74804,-0.01 c -0.74926,-0.001 -1.3515,-0.65438 -1.35032,-1.46436 l 0.009,-6.21389 c 0.001,-0.80999 0.60532,-1.46103 1.35457,-1.45976 z" /><path
     id="rect546-9"
     style="opacity:0.96;fill:#ffffff;fill-opacity:1;stroke:none;stroke-width:0.558943;stroke-opacity:1"
     d="m 121.17273,114.69349 5.74805,0.01 c 0.74925,0.001 1.3515,0.65437 1.35032,1.46435 l -0.009,6.2139 c -0.001,0.80997 -0.60532,1.46103 -1.35458,1.45975 l -5.74804,-0.01 c -0.74926,-0.001 -1.3515,-0.65438 -1.35032,-1.46435 l 0.009,-6.2139 c 10e-4,-0.80998 0.60532,-1.46103 1.35457,-1.45975 z" /><path
     id="rect548-4"
     style="opacity:0.96;fill:#ffffff;fill-opacity:1;stroke:none;stroke-width:0.558943;stroke-opacity:1"
     d="m 132.61248,114.71294 5.74805,0.01 c 0.74925,0.001 1.3515,0.65437 1.35032,1.46436 l -0.009,6.21389 c -0.001,0.80998 -0.60532,1.46103 -1.35458,1.45976 l -5.74804,-0.01 c -0.74926,-0.001 -1.3515,-0.65438 -1.35032,-1.46436 l 0.009,-6.21389 c 10e-4,-0.80999 0.60531,-1.46104 1.35457,-1.45976 z" /><path
     id="rect550-8"
     style="opacity:0.96;fill:#ffffff;fill-opacity:1;stroke:none;stroke-width:0.558943;stroke-opacity:1"
     d="m 144.05223,114.73239 5.74804,0.01 c 0.74926,0.001 1.3515,0.65437 1.35032,1.46436 l -0.009,6.21389 c -0.001,0.80998 -0.60532,1.46103 -1.35457,1.45976 l -5.74804,-0.01 c -0.74926,-0.001 -1.3515,-0.65438 -1.35033,-1.46436 l 0.009,-6.21389 c 10e-4,-0.80999 0.60532,-1.46103 1.35458,-1.45976 z" /><path
     id="rect552-5"
     style="opacity:0.96;fill:#ffffff;fill-opacity:1;stroke:none;stroke-width:0.558943;stroke-opacity:1"
     d="m 155.49198,114.75184 5.74804,0.01 c 0.74926,0.001 1.3515,0.65438 1.35032,1.46436 l -0.009,6.21389 c -0.001,0.80998 -0.60532,1.46104 -1.35457,1.45976 l -5.74805,-0.01 c -0.74926,-0.001 -1.3515,-0.65438 -1.35032,-1.46436 l 0.009,-6.21389 c 10e-4,-0.80998 0.60532,-1.46103 1.35458,-1.45976 z" /><path
     id="rect554-0"
     style="opacity:0.96;fill:#ffffff;fill-opacity:1;stroke:none;stroke-width:0.558943;stroke-opacity:1"
     d="m 166.53928,114.77063 5.74805,0.01 c 0.74926,0.001 1.3515,0.65437 1.35032,1.46436 l -0.009,6.21389 c -0.001,0.80998 -0.60532,1.46103 -1.35458,1.45976 l -5.74804,-0.01 c -0.74926,-0.001 -1.3515,-0.65438 -1.35033,-1.46436 l 0.009,-6.21389 c 0.001,-0.80998 0.60532,-1.46103 1.35457,-1.45976 z" /><path
     id="rect556-4"
     style="opacity:0.96;fill:#ffffff;fill-opacity:1;stroke:none;stroke-width:0.558943;stroke-opacity:1"
     d="m 177.58124,114.78941 6.54474,0.0111 c 0.74926,0.001 1.3515,0.65437 1.35033,1.46435 l -0.009,6.2139 c -0.001,0.80998 -0.60532,1.46103 -1.35457,1.45976 l -6.54474,-0.0111 c -0.74926,-0.001 -1.3515,-0.65438 -1.35033,-1.46436 l 0.009,-6.21389 c 10e-4,-0.80999 0.60532,-1.46104 1.35457,-1.45976 z" /><path
     id="rect558-6"
     style="opacity:0.96;fill:#ffffff;fill-opacity:1;stroke:none;stroke-width:0.558943;stroke-opacity:1"
     d="m 190.61223,114.81157 24.99134,0.0425 c 0.74926,0.001 1.3515,0.65437 1.35032,1.46435 l -0.009,6.2139 c -10e-4,0.80997 -0.60532,1.46103 -1.35458,1.45975 l -24.99134,-0.0425 c -0.74925,-0.001 -1.3515,-0.65438 -1.35032,-1.46435 l 0.009,-6.2139 c 10e-4,-0.80998 0.60533,-1.46103 1.35458,-1.45975 z" /><path
     id="rect560-1"
     style="opacity:0.96;fill:#ffffff;fill-opacity:1;stroke:none;stroke-width:0.558943;stroke-opacity:1"
     d="m 53.984912,126.20227 11.326535,0.0193 c 0.749255,0.001 1.3515,0.65438 1.350322,1.46436 l -0.009,6.21389 c -0.0012,0.80998 -0.605321,1.46103 -1.354577,1.45976 l -11.326577,-0.0193 c -0.74926,-0.001 -1.3515,-0.65438 -1.350322,-1.46436 l 0.009,-6.21389 c 0.0012,-0.80998 0.605317,-1.46103 1.354577,-1.45976 z" /><path
     id="rect562-5"
     style="opacity:0.96;fill:#ffffff;fill-opacity:1;stroke:none;stroke-width:0.558943;stroke-opacity:1"
     d="m 69.811333,126.22918 7.939767,0.0135 c 0.749255,0.001 1.3515,0.65438 1.350321,1.46436 l -0.009,6.21389 c -0.0012,0.80998 -0.605322,1.46104 -1.354577,1.45976 l -7.939767,-0.0135 c -0.749255,-0.001 -1.3515,-0.65438 -1.350322,-1.46436 l 0.009,-6.21389 c 0.0012,-0.80998 0.605321,-1.46103 1.354577,-1.45976 z" /><path
     id="rect564-8"
     style="opacity:0.96;fill:#ffffff;fill-opacity:1;stroke:none;stroke-width:0.558943;stroke-opacity:1"
     d="m 82.853083,126.25136 8.022017,0.0136 c 0.749255,0.001 1.3515,0.65437 1.350322,1.46436 l -0.009,6.21389 c -0.0012,0.80998 -0.605321,1.46103 -1.354577,1.45976 l -8.022017,-0.0136 c -0.749255,-0.001 -1.3515,-0.65438 -1.350322,-1.46436 l 0.009,-6.21389 c 0.0012,-0.80998 0.605322,-1.46103 1.354577,-1.45976 z" /><path
     id="rect566-0"
     style="opacity:0.96;fill:#ffffff;fill-opacity:1;stroke:none;stroke-width:0.558943;stroke-opacity:1"
     d="m 97.233407,126.27581 60.772813,0.10335 c 0.74925,0.001 1.3515,0.65437 1.35032,1.46435 l -0.009,6.2139 c -0.001,0.80997 -0.60532,1.46103 -1.35458,1.45975 l -60.772849,-0.10334 c -0.749255,-0.001 -1.3515,-0.65438 -1.350322,-1.46436 l 0.009,-6.21389 c 0.0012,-0.80998 0.605321,-1.46103 1.354576,-1.45976 z" /><path
     id="rect568-1"
     style="opacity:0.96;fill:#ffffff;fill-opacity:1;stroke:none;stroke-width:0.558943;stroke-opacity:1"
     d="m 146.61591,52.137431 7.74033,0.0132 c 0.74925,0.001 1.3515,0.65437 1.35032,1.46436 l -0.009,6.21389 c -0.001,0.80998 -0.60532,1.46103 -1.35458,1.45976 l -7.74032,-0.0132 c -0.74926,-10e-4 -1.3515,-0.65438 -1.35032,-1.46436 l 0.009,-6.21389 c 0.001,-0.80999 0.60531,-1.46104 1.35457,-1.45976 z" /><path
     id="rect572-0"
     style="opacity:0.96;fill:#ffffff;fill-opacity:1;stroke:none;stroke-width:0.558943;stroke-opacity:1"
     d="m 193.08433,126.43881 11.01743,0.0187 c 0.74925,0.001 1.3515,0.65437 1.35032,1.46435 l -0.009,6.2139 c -0.001,0.80997 -0.60533,1.46103 -1.35458,1.45975 l -11.01743,-0.0187 c -0.74926,-0.001 -1.3515,-0.65438 -1.35032,-1.46435 l 0.009,-6.2139 c 0.001,-0.80998 0.60532,-1.46103 1.35458,-1.45975 z" /></svg>
