<?xml version="1.0" encoding="UTF-8" standalone="no"?>
<!-- Created with Inkscape (http://www.inkscape.org/) -->

<svg
   id="svg2"
   viewBox="0 0 270 69.999998"
   version="1.2"
   width="270"
   height="70"
   xml:space="preserve"
   xmlns="http://www.w3.org/2000/svg"
   xmlns:svg="http://www.w3.org/2000/svg"
   xmlns:rdf="http://www.w3.org/1999/02/22-rdf-syntax-ns#"
   xmlns:cc="http://creativecommons.org/ns#"
   xmlns:dc="http://purl.org/dc/elements/1.1/"><title
     id="title3716">keyboard</title><defs
     id="defs4"><style
       id="style4444"
       type="text/css" /><style
       id="style4444-3"
       type="text/css" /><style
       id="style4444-4"
       type="text/css" /></defs><flowRoot
     id="flowRoot6403"
     xml:space="preserve"
     style="font-style:italic;font-weight:bold;line-height:0.01%;font-family:'Plasmatica Rev';fill:#00aa00;stroke:#00aa00"
     transform="matrix(0.1688,2.1245,-2.1245,0.1688,479.22945,-943.73493)">
      <flowPara
   id="flowPara6409"
   style="font-size:8px;line-height:1.25" />
    </flowRoot><g
     id="g3406"
     style="fill:#ffffff;fill-opacity:1;stroke:none;stroke-opacity:1"
     transform="matrix(0.49823154,0,0,0.42042327,-4.5813748,-312.99421)"><g
       id="g452"
       style="fill:#ffffff;fill-opacity:1;stroke:none;stroke-opacity:1"
       transform="matrix(1.3823,-1.1765e-4,1.1765e-4,1.3823,-432.7,-33.827)"><path
         id="rect454"
         style="opacity:0.96;fill:#ffffff;fill-opacity:1;stroke:none;stroke-opacity:1"
         transform="rotate(0.095002)"
         d="m 333.46581,571.81 h 10.6924 c 1.39376,0 2.5158,1.12204 2.5158,2.5158 v 10.6924 c 0,1.39375 -1.12204,2.5158 -2.5158,2.5158 h -10.6924 c -1.39375,0 -2.5158,-1.12205 -2.5158,-2.5158 v -10.6924 c 0,-1.39376 1.12205,-2.5158 2.5158,-2.5158 z" /><path
         id="rect456"
         style="opacity:0.96;fill:#ffffff;fill-opacity:1;stroke:none;stroke-opacity:1"
         transform="rotate(0.095002)"
         d="m 352.5458,571.81 h 10.6924 c 1.39375,0 2.5158,1.12204 2.5158,2.5158 v 10.6924 c 0,1.39375 -1.12205,2.5158 -2.5158,2.5158 h -10.6924 c -1.39375,0 -2.5158,-1.12205 -2.5158,-2.5158 v -10.6924 c 0,-1.39376 1.12205,-2.5158 2.5158,-2.5158 z" /><path
         id="rect458"
         style="opacity:0.96;fill:#ffffff;fill-opacity:1;stroke:none;stroke-opacity:1"
         transform="rotate(0.095002)"
         d="m 373.08581,571.81 h 10.6924 c 1.39375,0 2.5158,1.12204 2.5158,2.5158 v 10.6924 c 0,1.39375 -1.12205,2.5158 -2.5158,2.5158 h -10.6924 c -1.39376,0 -2.5158,-1.12205 -2.5158,-2.5158 v -10.6924 c 0,-1.39376 1.12204,-2.5158 2.5158,-2.5158 z" /><path
         id="rect460"
         style="opacity:0.96;fill:#ffffff;fill-opacity:1;stroke:none;stroke-opacity:1"
         transform="rotate(0.095002)"
         d="m 392.90581,571.81 h 10.6924 c 1.39376,0 2.5158,1.12204 2.5158,2.5158 v 10.6924 c 0,1.39375 -1.12204,2.5158 -2.5158,2.5158 h -10.6924 c -1.39375,0 -2.5158,-1.12205 -2.5158,-2.5158 v -10.6924 c 0,-1.39376 1.12205,-2.5158 2.5158,-2.5158 z" /><path
         id="rect462"
         style="opacity:0.96;fill:#ffffff;fill-opacity:1;stroke:none;stroke-opacity:1"
         transform="rotate(0.095002)"
         d="m 414.1758,571.81 h 10.6924 c 1.39376,0 2.5158,1.12204 2.5158,2.5158 v 10.6924 c 0,1.39375 -1.12204,2.5158 -2.5158,2.5158 h -10.6924 c -1.39375,0 -2.5158,-1.12205 -2.5158,-2.5158 v -10.6924 c 0,-1.39376 1.12205,-2.5158 2.5158,-2.5158 z" /><path
         id="rect464"
         style="opacity:0.96;fill:#ffffff;fill-opacity:1;stroke:none;stroke-opacity:1"
         transform="rotate(0.095002)"
         d="m 433.25579,571.81 h 10.6924 c 1.39375,0 2.5158,1.12204 2.5158,2.5158 v 10.6924 c 0,1.39375 -1.12205,2.5158 -2.5158,2.5158 h -10.6924 c -1.39375,0 -2.5158,-1.12205 -2.5158,-2.5158 v -10.6924 c 0,-1.39376 1.12205,-2.5158 2.5158,-2.5158 z" /><path
         id="rect466"
         style="opacity:0.96;fill:#ffffff;fill-opacity:1;stroke:none;stroke-opacity:1"
         transform="rotate(0.095002)"
         d="m 455.27581,571.81 h 10.6924 c 1.39375,0 2.5158,1.12204 2.5158,2.5158 v 10.6924 c 0,1.39375 -1.12205,2.5158 -2.5158,2.5158 h -10.6924 c -1.39375,0 -2.5158,-1.12205 -2.5158,-2.5158 v -10.6924 c 0,-1.39376 1.12205,-2.5158 2.5158,-2.5158 z" /><path
         id="rect468"
         style="opacity:0.96;fill:#ffffff;fill-opacity:1;stroke:none;stroke-opacity:1"
         transform="rotate(0.095002)"
         d="m 475.81579,571.81 h 10.6924 c 1.39375,0 2.5158,1.12204 2.5158,2.5158 v 10.6924 c 0,1.39375 -1.12205,2.5158 -2.5158,2.5158 h -10.6924 c -1.39376,0 -2.5158,-1.12205 -2.5158,-2.5158 v -10.6924 c 0,-1.39376 1.12204,-2.5158 2.5158,-2.5158 z" /><path
         id="rect470"
         style="opacity:0.96;fill:#ffffff;fill-opacity:1;stroke:none;stroke-opacity:1"
         transform="rotate(0.095002)"
         d="m 497.83581,571.81 h 10.6924 c 1.39375,0 2.5158,1.12204 2.5158,2.5158 v 10.6924 c 0,1.39375 -1.12205,2.5158 -2.5158,2.5158 h -10.6924 c -1.39376,0 -2.5158,-1.12205 -2.5158,-2.5158 v -10.6924 c 0,-1.39376 1.12204,-2.5158 2.5158,-2.5158 z" /><path
         id="rect472"
         style="opacity:0.96;fill:#ffffff;fill-opacity:1;stroke:none;stroke-opacity:1"
         transform="rotate(0.095002)"
         d="m 518.37579,571.81 h 10.6924 c 1.39375,0 2.5158,1.12204 2.5158,2.5158 v 10.6924 c 0,1.39375 -1.12205,2.5158 -2.5158,2.5158 h -10.6924 c -1.39376,0 -2.5158,-1.12205 -2.5158,-2.5158 v -10.6924 c 0,-1.39376 1.12204,-2.5158 2.5158,-2.5158 z" /><path
         id="rect474"
         style="opacity:0.96;fill:#ffffff;fill-opacity:1;stroke:none;stroke-opacity:1"
         transform="rotate(0.095002)"
         d="m 540.3958,571.81 h 10.6924 c 1.39376,0 2.5158,1.12204 2.5158,2.5158 v 10.6924 c 0,1.39375 -1.12204,2.5158 -2.5158,2.5158 h -10.6924 c -1.39375,0 -2.5158,-1.12205 -2.5158,-2.5158 v -10.6924 c 0,-1.39376 1.12205,-2.5158 2.5158,-2.5158 z" /><path
         id="rect476"
         style="opacity:0.96;fill:#ffffff;fill-opacity:1;stroke:none;stroke-opacity:1"
         transform="rotate(0.095002)"
         d="m 560.93578,571.81 h 10.6924 c 1.39376,0 2.5158,1.12204 2.5158,2.5158 v 10.6924 c 0,1.39375 -1.12204,2.5158 -2.5158,2.5158 h -10.6924 c -1.39375,0 -2.5158,-1.12205 -2.5158,-2.5158 v -10.6924 c 0,-1.39376 1.12205,-2.5158 2.5158,-2.5158 z" /><path
         id="rect478"
         style="opacity:0.96;fill:#ffffff;fill-opacity:1;stroke:none;stroke-opacity:1"
         transform="rotate(0.095002)"
         d="m 582.9558,571.81 h 10.6924 c 1.39376,0 2.5158,1.12204 2.5158,2.5158 v 10.6924 c 0,1.39375 -1.12204,2.5158 -2.5158,2.5158 h -10.6924 c -1.39375,0 -2.5158,-1.12205 -2.5158,-2.5158 v -10.6924 c 0,-1.39376 1.12205,-2.5158 2.5158,-2.5158 z" /><path
         id="rect480"
         style="opacity:0.96;fill:#ffffff;fill-opacity:1;stroke:none;stroke-opacity:1"
         transform="rotate(0.095002)"
         d="m 604.23577,571.81 h 30.8714 c 1.39375,0 2.5158,1.12204 2.5158,2.5158 v 10.6924 c 0,1.39375 -1.12205,2.5158 -2.5158,2.5158 h -30.8714 c -1.39375,0 -2.5158,-1.12205 -2.5158,-2.5158 v -10.6924 c 0,-1.39376 1.12205,-2.5158 2.5158,-2.5158 z" /><path
         id="rect482"
         style="opacity:0.96;fill:#ffffff;fill-opacity:1;stroke:none;stroke-opacity:1"
         transform="rotate(0.095002)"
         d="m 333.49581,591.81 h 21.6994 c 1.39376,0 2.5158,1.12204 2.5158,2.5158 v 10.6924 c 0,1.39375 -1.12204,2.5158 -2.5158,2.5158 h -21.6994 c -1.39375,0 -2.5158,-1.12205 -2.5158,-2.5158 v -10.6924 c 0,-1.39376 1.12205,-2.5158 2.5158,-2.5158 z" /><path
         id="rect484"
         style="opacity:0.96;fill:#ffffff;fill-opacity:1;stroke:none;stroke-opacity:1"
         transform="rotate(0.095002)"
         d="m 363.84579,591.81 h 10.6924 c 1.39375,0 2.5158,1.12204 2.5158,2.5158 v 10.6924 c 0,1.39375 -1.12205,2.5158 -2.5158,2.5158 h -10.6924 c -1.39376,0 -2.5158,-1.12205 -2.5158,-2.5158 v -10.6924 c 0,-1.39376 1.12204,-2.5158 2.5158,-2.5158 z" /><path
         id="rect486"
         style="opacity:0.96;fill:#ffffff;fill-opacity:1;stroke:none;stroke-opacity:1"
         transform="rotate(0.095002)"
         d="m 384.3858,591.81 h 10.6924 c 1.39375,0 2.5158,1.12204 2.5158,2.5158 v 10.6924 c 0,1.39375 -1.12205,2.5158 -2.5158,2.5158 h -10.6924 c -1.39376,0 -2.5158,-1.12205 -2.5158,-2.5158 v -10.6924 c 0,-1.39376 1.12204,-2.5158 2.5158,-2.5158 z" /><path
         id="rect488"
         style="opacity:0.96;fill:#ffffff;fill-opacity:1;stroke:none;stroke-opacity:1"
         transform="rotate(0.095002)"
         d="m 404.2058,591.81 h 10.6924 c 1.39376,0 2.5158,1.12204 2.5158,2.5158 v 10.6924 c 0,1.39375 -1.12204,2.5158 -2.5158,2.5158 h -10.6924 c -1.39375,0 -2.5158,-1.12205 -2.5158,-2.5158 v -10.6924 c 0,-1.39376 1.12205,-2.5158 2.5158,-2.5158 z" /><path
         id="rect490"
         style="opacity:0.96;fill:#ffffff;fill-opacity:1;stroke:none;stroke-opacity:1"
         transform="rotate(0.095002)"
         d="m 425.4858,591.81 h 10.6924 c 1.39375,0 2.5158,1.12204 2.5158,2.5158 v 10.6924 c 0,1.39375 -1.12205,2.5158 -2.5158,2.5158 h -10.6924 c -1.39375,0 -2.5158,-1.12205 -2.5158,-2.5158 v -10.6924 c 0,-1.39376 1.12205,-2.5158 2.5158,-2.5158 z" /><path
         id="rect492"
         style="opacity:0.96;fill:#ffffff;fill-opacity:1;stroke:none;stroke-opacity:1"
         transform="rotate(0.095002)"
         d="m 444.56579,591.81 h 10.6924 c 1.39375,0 2.5158,1.12204 2.5158,2.5158 v 10.6924 c 0,1.39375 -1.12205,2.5158 -2.5158,2.5158 h -10.6924 c -1.39376,0 -2.5158,-1.12205 -2.5158,-2.5158 v -10.6924 c 0,-1.39376 1.12204,-2.5158 2.5158,-2.5158 z" /><path
         id="rect494"
         style="opacity:0.96;fill:#ffffff;fill-opacity:1;stroke:none;stroke-opacity:1"
         transform="rotate(0.095002)"
         d="m 466.5758,591.81 h 10.6924 c 1.39375,0 2.5158,1.12204 2.5158,2.5158 v 10.6924 c 0,1.39375 -1.12205,2.5158 -2.5158,2.5158 h -10.6924 c -1.39376,0 -2.5158,-1.12205 -2.5158,-2.5158 v -10.6924 c 0,-1.39376 1.12204,-2.5158 2.5158,-2.5158 z" /><path
         id="rect496"
         style="opacity:0.96;fill:#ffffff;fill-opacity:1;stroke:none;stroke-opacity:1"
         transform="rotate(0.095002)"
         d="m 487.11581,591.81 h 10.6924 c 1.39375,0 2.5158,1.12204 2.5158,2.5158 v 10.6924 c 0,1.39375 -1.12205,2.5158 -2.5158,2.5158 h -10.6924 c -1.39376,0 -2.5158,-1.12205 -2.5158,-2.5158 v -10.6924 c 0,-1.39376 1.12204,-2.5158 2.5158,-2.5158 z" /><path
         id="rect498"
         style="opacity:0.96;fill:#ffffff;fill-opacity:1;stroke:none;stroke-opacity:1"
         transform="rotate(0.095002)"
         d="m 509.1358,591.81 h 10.6924 c 1.39375,0 2.5158,1.12204 2.5158,2.5158 v 10.6924 c 0,1.39375 -1.12205,2.5158 -2.5158,2.5158 h -10.6924 c -1.39376,0 -2.5158,-1.12205 -2.5158,-2.5158 v -10.6924 c 0,-1.39376 1.12204,-2.5158 2.5158,-2.5158 z" /><path
         id="rect500"
         style="opacity:0.96;fill:#ffffff;fill-opacity:1;stroke:none;stroke-opacity:1"
         transform="rotate(0.095002)"
         d="m 529.67577,591.81 h 10.6924 c 1.39376,0 2.5158,1.12204 2.5158,2.5158 v 10.6924 c 0,1.39375 -1.12204,2.5158 -2.5158,2.5158 h -10.6924 c -1.39375,0 -2.5158,-1.12205 -2.5158,-2.5158 v -10.6924 c 0,-1.39376 1.12205,-2.5158 2.5158,-2.5158 z" /><path
         id="rect502"
         style="opacity:0.96;fill:#ffffff;fill-opacity:1;stroke:none;stroke-opacity:1"
         transform="rotate(0.095002)"
         d="m 551.69579,591.81 h 10.6924 c 1.39376,0 2.5158,1.12204 2.5158,2.5158 v 10.6924 c 0,1.39375 -1.12204,2.5158 -2.5158,2.5158 h -10.6924 c -1.39375,0 -2.5158,-1.12205 -2.5158,-2.5158 v -10.6924 c 0,-1.39376 1.12205,-2.5158 2.5158,-2.5158 z" /><path
         id="rect504"
         style="opacity:0.96;fill:#ffffff;fill-opacity:1;stroke:none;stroke-opacity:1"
         transform="rotate(0.095002)"
         d="m 572.23577,591.81 h 10.6924 c 1.39375,0 2.5158,1.12204 2.5158,2.5158 v 10.6924 c 0,1.39375 -1.12205,2.5158 -2.5158,2.5158 h -10.6924 c -1.39375,0 -2.5158,-1.12205 -2.5158,-2.5158 v -10.6924 c 0,-1.39376 1.12205,-2.5158 2.5158,-2.5158 z" /><path
         id="rect506"
         style="opacity:0.96;fill:#ffffff;fill-opacity:1;stroke:none;stroke-opacity:1"
         transform="rotate(0.095002)"
         d="m 594.25579,591.81 h 10.6924 c 1.39375,0 2.5158,1.12204 2.5158,2.5158 v 10.6924 c 0,1.39375 -1.12205,2.5158 -2.5158,2.5158 h -10.6924 c -1.39375,0 -2.5158,-1.12205 -2.5158,-2.5158 v -10.6924 c 0,-1.39376 1.12205,-2.5158 2.5158,-2.5158 z" /><path
         id="rect508"
         style="opacity:0.96;fill:#ffffff;fill-opacity:1;stroke:none;stroke-opacity:1"
         transform="rotate(0.095002)"
         d="m 615.79583,591.81 h 20.1264 c 1.39375,0 2.5158,1.12204 2.5158,2.5158 v 10.6924 c 0,1.39375 -1.12205,2.5158 -2.5158,2.5158 h -20.1264 c -1.39375,0 -2.5158,-1.12205 -2.5158,-2.5158 v -10.6924 c 0,-1.39376 1.12205,-2.5158 2.5158,-2.5158 z" /><path
         id="rect510"
         style="opacity:0.96;fill:#ffffff;fill-opacity:1;stroke:none;stroke-opacity:1"
         transform="rotate(0.095002)"
         d="m 333.52581,611.81 h 25.1464 c 1.39375,0 2.5158,1.12204 2.5158,2.5158 v 10.6924 c 0,1.39375 -1.12205,2.5158 -2.5158,2.5158 h -25.1464 c -1.39375,0 -2.5158,-1.12205 -2.5158,-2.5158 v -10.6924 c 0,-1.39376 1.12205,-2.5158 2.5158,-2.5158 z" /><path
         id="rect512"
         style="opacity:0.96;fill:#ffffff;fill-opacity:1;stroke:none;stroke-opacity:1"
         transform="rotate(0.095002)"
         d="m 368.52581,611.81 h 10.6924 c 1.39375,0 2.5158,1.12204 2.5158,2.5158 v 10.6924 c 0,1.39375 -1.12205,2.5158 -2.5158,2.5158 h -10.6924 c -1.39375,0 -2.5158,-1.12205 -2.5158,-2.5158 v -10.6924 c 0,-1.39376 1.12205,-2.5158 2.5158,-2.5158 z" /><path
         id="rect514"
         style="opacity:0.96;fill:#ffffff;fill-opacity:1;stroke:none;stroke-opacity:1"
         transform="rotate(0.095002)"
         d="m 389.08581,611.81 h 10.6924 c 1.39375,0 2.5158,1.12204 2.5158,2.5158 v 10.6924 c 0,1.39375 -1.12205,2.5158 -2.5158,2.5158 h -10.6924 c -1.39376,0 -2.5158,-1.12205 -2.5158,-2.5158 v -10.6924 c 0,-1.39376 1.12204,-2.5158 2.5158,-2.5158 z" /><path
         id="rect516"
         style="opacity:0.96;fill:#ffffff;fill-opacity:1;stroke:none;stroke-opacity:1"
         transform="rotate(0.095002)"
         d="m 409.25579,611.81 h 10.6924 c 1.39375,0 2.5158,1.12204 2.5158,2.5158 v 10.6924 c 0,1.39375 -1.12205,2.5158 -2.5158,2.5158 h -10.6924 c -1.39375,0 -2.5158,-1.12205 -2.5158,-2.5158 v -10.6924 c 0,-1.39376 1.12205,-2.5158 2.5158,-2.5158 z" /><path
         id="rect518"
         style="opacity:0.96;fill:#ffffff;fill-opacity:1;stroke:none;stroke-opacity:1"
         transform="rotate(0.095002)"
         d="m 429.44579,611.81 h 10.6924 c 1.39376,0 2.5158,1.12204 2.5158,2.5158 v 10.6924 c 0,1.39375 -1.12204,2.5158 -2.5158,2.5158 h -10.6924 c -1.39375,0 -2.5158,-1.12205 -2.5158,-2.5158 v -10.6924 c 0,-1.39376 1.12205,-2.5158 2.5158,-2.5158 z" /><path
         id="rect520"
         style="opacity:0.96;fill:#ffffff;fill-opacity:1;stroke:none;stroke-opacity:1"
         transform="rotate(0.095002)"
         d="m 449.9858,611.81 h 10.6924 c 1.39375,0 2.5158,1.12204 2.5158,2.5158 v 10.6924 c 0,1.39375 -1.12205,2.5158 -2.5158,2.5158 h -10.6924 c -1.39375,0 -2.5158,-1.12205 -2.5158,-2.5158 v -10.6924 c 0,-1.39376 1.12205,-2.5158 2.5158,-2.5158 z" /><path
         id="rect522"
         style="opacity:0.96;fill:#ffffff;fill-opacity:1;stroke:none;stroke-opacity:1"
         transform="rotate(0.095002)"
         d="m 471.2658,611.81 h 10.6924 c 1.39375,0 2.5158,1.12204 2.5158,2.5158 v 10.6924 c 0,1.39375 -1.12205,2.5158 -2.5158,2.5158 h -10.6924 c -1.39375,0 -2.5158,-1.12205 -2.5158,-2.5158 v -10.6924 c 0,-1.39376 1.12205,-2.5158 2.5158,-2.5158 z" /><path
         id="rect524"
         style="opacity:0.96;fill:#ffffff;fill-opacity:1;stroke:none;stroke-opacity:1"
         transform="rotate(0.095002)"
         d="m 492.5458,611.81 h 10.6924 c 1.39375,0 2.5158,1.12204 2.5158,2.5158 v 10.6924 c 0,1.39375 -1.12205,2.5158 -2.5158,2.5158 h -10.6924 c -1.39375,0 -2.5158,-1.12205 -2.5158,-2.5158 v -10.6924 c 0,-1.39376 1.12205,-2.5158 2.5158,-2.5158 z" /><path
         id="rect526"
         style="opacity:0.96;fill:#ffffff;fill-opacity:1;stroke:none;stroke-opacity:1"
         transform="rotate(0.095002)"
         d="m 513.8258,611.81 h 10.6924 c 1.39375,0 2.5158,1.12204 2.5158,2.5158 v 10.6924 c 0,1.39375 -1.12205,2.5158 -2.5158,2.5158 h -10.6924 c -1.39376,0 -2.5158,-1.12205 -2.5158,-2.5158 v -10.6924 c 0,-1.39376 1.12204,-2.5158 2.5158,-2.5158 z" /><path
         id="rect528"
         style="opacity:0.96;fill:#ffffff;fill-opacity:1;stroke:none;stroke-opacity:1"
         transform="rotate(0.095002)"
         d="m 534.37579,611.81 h 10.6924 c 1.39375,0 2.5158,1.12204 2.5158,2.5158 v 10.6924 c 0,1.39375 -1.12205,2.5158 -2.5158,2.5158 h -10.6924 c -1.39376,0 -2.5158,-1.12205 -2.5158,-2.5158 v -10.6924 c 0,-1.39376 1.12204,-2.5158 2.5158,-2.5158 z" /><path
         id="rect530"
         style="opacity:0.96;fill:#ffffff;fill-opacity:1;stroke:none;stroke-opacity:1"
         transform="rotate(0.095002)"
         d="m 554.91582,611.81 h 10.6924 c 1.39376,0 2.5158,1.12204 2.5158,2.5158 v 10.6924 c 0,1.39375 -1.12204,2.5158 -2.5158,2.5158 h -10.6924 c -1.39375,0 -2.5158,-1.12205 -2.5158,-2.5158 v -10.6924 c 0,-1.39376 1.12205,-2.5158 2.5158,-2.5158 z" /><path
         id="rect532"
         style="opacity:0.96;fill:#ffffff;fill-opacity:1;stroke:none;stroke-opacity:1"
         transform="rotate(0.095002)"
         d="m 576.93578,611.81 h 10.6924 c 1.39376,0 2.5158,1.12204 2.5158,2.5158 v 10.6924 c 0,1.39375 -1.12204,2.5158 -2.5158,2.5158 h -10.6924 c -1.39375,0 -2.5158,-1.12205 -2.5158,-2.5158 v -10.6924 c 0,-1.39376 1.12205,-2.5158 2.5158,-2.5158 z" /><path
         id="rect534"
         style="opacity:0.96;fill:#ffffff;fill-opacity:1;stroke:none;stroke-opacity:1"
         transform="rotate(0.095002)"
         d="m 598.94579,611.81 h 35.3184 c 1.39375,0 2.5158,1.12204 2.5158,2.5158 v 10.6924 c 0,1.39375 -1.12205,2.5158 -2.5158,2.5158 h -35.3184 c -1.39375,0 -2.5158,-1.12205 -2.5158,-2.5158 v -10.6924 c 0,-1.39376 1.12205,-2.5158 2.5158,-2.5158 z" /><path
         id="rect536"
         style="opacity:0.96;fill:#ffffff;fill-opacity:1;stroke:none;stroke-opacity:1"
         transform="rotate(0.095002)"
         d="m 333.56579,631.81 h 34.0414 c 1.39375,0 2.5158,1.12204 2.5158,2.5158 v 10.6924 c 0,1.39375 -1.12205,2.5158 -2.5158,2.5158 h -34.0414 c -1.39376,0 -2.5158,-1.12205 -2.5158,-2.5158 v -10.6924 c 0,-1.39376 1.12204,-2.5158 2.5158,-2.5158 z" /><path
         id="rect538"
         style="opacity:0.96;fill:#ffffff;fill-opacity:1;stroke:none;stroke-opacity:1"
         transform="rotate(0.095002)"
         d="m 377.08581,631.81 h 10.6924 c 1.39375,0 2.5158,1.12204 2.5158,2.5158 v 10.6924 c 0,1.39375 -1.12205,2.5158 -2.5158,2.5158 h -10.6924 c -1.39376,0 -2.5158,-1.12205 -2.5158,-2.5158 v -10.6924 c 0,-1.39376 1.12204,-2.5158 2.5158,-2.5158 z" /><path
         id="rect540"
         style="opacity:0.96;fill:#ffffff;fill-opacity:1;stroke:none;stroke-opacity:1"
         transform="rotate(0.095002)"
         d="m 397.6458,631.81 h 10.6924 c 1.39376,0 2.5158,1.12204 2.5158,2.5158 v 10.6924 c 0,1.39375 -1.12204,2.5158 -2.5158,2.5158 h -10.6924 c -1.39375,0 -2.5158,-1.12205 -2.5158,-2.5158 v -10.6924 c 0,-1.39376 1.12205,-2.5158 2.5158,-2.5158 z" /><path
         id="rect542"
         style="opacity:0.96;fill:#ffffff;fill-opacity:1;stroke:none;stroke-opacity:1"
         transform="rotate(0.095002)"
         d="m 417.80581,631.81 h 10.6924 c 1.39375,0 2.5158,1.12204 2.5158,2.5158 v 10.6924 c 0,1.39375 -1.12205,2.5158 -2.5158,2.5158 h -10.6924 c -1.39375,0 -2.5158,-1.12205 -2.5158,-2.5158 v -10.6924 c 0,-1.39376 1.12205,-2.5158 2.5158,-2.5158 z" /><path
         id="rect544"
         style="opacity:0.96;fill:#ffffff;fill-opacity:1;stroke:none;stroke-opacity:1"
         transform="rotate(0.095002)"
         d="m 437.99581,631.81 h 10.6924 c 1.39375,0 2.5158,1.12204 2.5158,2.5158 v 10.6924 c 0,1.39375 -1.12205,2.5158 -2.5158,2.5158 h -10.6924 c -1.39375,0 -2.5158,-1.12205 -2.5158,-2.5158 v -10.6924 c 0,-1.39376 1.12205,-2.5158 2.5158,-2.5158 z" /><path
         id="rect546"
         style="opacity:0.96;fill:#ffffff;fill-opacity:1;stroke:none;stroke-opacity:1"
         transform="rotate(0.095002)"
         d="m 458.5458,631.81 h 10.6924 c 1.39375,0 2.5158,1.12204 2.5158,2.5158 v 10.6924 c 0,1.39375 -1.12205,2.5158 -2.5158,2.5158 h -10.6924 c -1.39375,0 -2.5158,-1.12205 -2.5158,-2.5158 v -10.6924 c 0,-1.39376 1.12205,-2.5158 2.5158,-2.5158 z" /><path
         id="rect548"
         style="opacity:0.96;fill:#ffffff;fill-opacity:1;stroke:none;stroke-opacity:1"
         transform="rotate(0.095002)"
         d="m 479.8258,631.81 h 10.6924 c 1.39375,0 2.5158,1.12204 2.5158,2.5158 v 10.6924 c 0,1.39375 -1.12205,2.5158 -2.5158,2.5158 h -10.6924 c -1.39376,0 -2.5158,-1.12205 -2.5158,-2.5158 v -10.6924 c 0,-1.39376 1.12204,-2.5158 2.5158,-2.5158 z" /><path
         id="rect550"
         style="opacity:0.96;fill:#ffffff;fill-opacity:1;stroke:none;stroke-opacity:1"
         transform="rotate(0.095002)"
         d="m 501.1058,631.81 h 10.6924 c 1.39375,0 2.5158,1.12204 2.5158,2.5158 v 10.6924 c 0,1.39375 -1.12205,2.5158 -2.5158,2.5158 h -10.6924 c -1.39376,0 -2.5158,-1.12205 -2.5158,-2.5158 v -10.6924 c 0,-1.39376 1.12204,-2.5158 2.5158,-2.5158 z" /><path
         id="rect552"
         style="opacity:0.96;fill:#ffffff;fill-opacity:1;stroke:none;stroke-opacity:1"
         transform="rotate(0.095002)"
         d="m 522.3858,631.81 h 10.6924 c 1.39375,0 2.5158,1.12204 2.5158,2.5158 v 10.6924 c 0,1.39375 -1.12205,2.5158 -2.5158,2.5158 h -10.6924 c -1.39376,0 -2.5158,-1.12205 -2.5158,-2.5158 v -10.6924 c 0,-1.39376 1.12204,-2.5158 2.5158,-2.5158 z" /><path
         id="rect554"
         style="opacity:0.96;fill:#ffffff;fill-opacity:1;stroke:none;stroke-opacity:1"
         transform="rotate(0.095002)"
         d="m 542.93578,631.81 h 10.6924 c 1.39376,0 2.5158,1.12204 2.5158,2.5158 v 10.6924 c 0,1.39375 -1.12204,2.5158 -2.5158,2.5158 h -10.6924 c -1.39375,0 -2.5158,-1.12205 -2.5158,-2.5158 v -10.6924 c 0,-1.39376 1.12205,-2.5158 2.5158,-2.5158 z" /><path
         id="rect556"
         style="opacity:0.96;fill:#ffffff;fill-opacity:1;stroke:none;stroke-opacity:1"
         transform="rotate(0.095002)"
         d="m 563.47582,631.81 h 12.1744 c 1.39375,0 2.5158,1.12204 2.5158,2.5158 v 10.6924 c 0,1.39375 -1.12205,2.5158 -2.5158,2.5158 h -12.1744 c -1.39375,0 -2.5158,-1.12205 -2.5158,-2.5158 v -10.6924 c 0,-1.39376 1.12205,-2.5158 2.5158,-2.5158 z" /><path
         id="rect558"
         style="opacity:0.96;fill:#ffffff;fill-opacity:1;stroke:none;stroke-opacity:1"
         transform="rotate(0.095002)"
         d="m 587.71581,631.81 h 46.4884 c 1.39376,0 2.5158,1.12204 2.5158,2.5158 v 10.6924 c 0,1.39375 -1.12204,2.5158 -2.5158,2.5158 h -46.4884 c -1.39375,0 -2.5158,-1.12205 -2.5158,-2.5158 v -10.6924 c 0,-1.39376 1.12205,-2.5158 2.5158,-2.5158 z" /><path
         id="rect560"
         style="opacity:0.96;fill:#ffffff;fill-opacity:1;stroke:none;stroke-opacity:1"
         transform="rotate(0.095002)"
         d="m 333.59579,651.81 h 21.0694 c 1.39375,0 2.5158,1.12204 2.5158,2.5158 v 10.6924 c 0,1.39375 -1.12205,2.5158 -2.5158,2.5158 h -21.0694 c -1.39376,0 -2.5158,-1.12205 -2.5158,-2.5158 v -10.6924 c 0,-1.39376 1.12204,-2.5158 2.5158,-2.5158 z" /><path
         id="rect562"
         style="opacity:0.96;fill:#ffffff;fill-opacity:1;stroke:none;stroke-opacity:1"
         transform="rotate(0.095002)"
         d="m 363.03579,651.81 h 14.7694 c 1.39375,0 2.5158,1.12204 2.5158,2.5158 v 10.6924 c 0,1.39375 -1.12205,2.5158 -2.5158,2.5158 h -14.7694 c -1.39375,0 -2.5158,-1.12205 -2.5158,-2.5158 v -10.6924 c 0,-1.39376 1.12205,-2.5158 2.5158,-2.5158 z" /><path
         id="rect564"
         style="opacity:0.96;fill:#ffffff;fill-opacity:1;stroke:none;stroke-opacity:1"
         transform="rotate(0.095002)"
         d="m 387.2958,651.81 h 14.9224 c 1.39375,0 2.5158,1.12204 2.5158,2.5158 v 10.6924 c 0,1.39375 -1.12205,2.5158 -2.5158,2.5158 h -14.9224 c -1.39375,0 -2.5158,-1.12205 -2.5158,-2.5158 v -10.6924 c 0,-1.39376 1.12205,-2.5158 2.5158,-2.5158 z" /><path
         id="rect566"
         style="opacity:0.96;fill:#ffffff;fill-opacity:1;stroke:none;stroke-opacity:1"
         transform="rotate(0.095002)"
         d="m 414.0458,651.81 h 113.0484 c 1.39375,0 2.5158,1.12204 2.5158,2.5158 v 10.6924 c 0,1.39375 -1.12205,2.5158 -2.5158,2.5158 H 414.0458 c -1.39375,0 -2.5158,-1.12205 -2.5158,-2.5158 v -10.6924 c 0,-1.39376 1.12205,-2.5158 2.5158,-2.5158 z" /><path
         id="rect568"
         style="opacity:0.96;fill:#ffffff;fill-opacity:1;stroke:none;stroke-opacity:1"
         transform="rotate(0.095002)"
         d="m 540.36578,651.81 h 14.3984 c 1.39375,0 2.5158,1.12204 2.5158,2.5158 v 10.6924 c 0,1.39375 -1.12205,2.5158 -2.5158,2.5158 h -14.3984 c -1.39376,0 -2.5158,-1.12205 -2.5158,-2.5158 v -10.6924 c 0,-1.39376 1.12204,-2.5158 2.5158,-2.5158 z" /><path
         id="rect570"
         style="opacity:0.96;fill:#ffffff;fill-opacity:1;stroke:none;stroke-opacity:1"
         transform="rotate(0.095002)"
         d="m 566.10583,651.81 h 15.5104 c 1.39375,0 2.5158,1.12204 2.5158,2.5158 v 10.6924 c 0,1.39375 -1.12205,2.5158 -2.5158,2.5158 h -15.5104 c -1.39376,0 -2.5158,-1.12205 -2.5158,-2.5158 v -10.6924 c 0,-1.39376 1.12204,-2.5158 2.5158,-2.5158 z" /><path
         id="rect572"
         style="opacity:0.96;fill:#ffffff;fill-opacity:1;stroke:none;stroke-opacity:1"
         transform="rotate(0.095002)"
         d="m 592.34582,651.81 h 20.4944 c 1.39375,0 2.5158,1.12204 2.5158,2.5158 v 10.6924 c 0,1.39375 -1.12205,2.5158 -2.5158,2.5158 h -20.4944 c -1.39376,0 -2.5158,-1.12205 -2.5158,-2.5158 v -10.6924 c 0,-1.39376 1.12204,-2.5158 2.5158,-2.5158 z" /></g><path
       id="rect3364"
       style="color:#000000;text-indent:0;text-transform:none;fill:#ffffff;fill-opacity:1;stroke:none;stroke-width:1.9975;stroke-opacity:1"
       d="m 23.742,745.73 c -7.3612,-0.004 -13.424,5.9914 -13.427,13.352 l -0.05632,129.15 c -0.0033,7.3611 6.054,13.361 13.415,13.365 l 424.72,0.19139 c 7.3611,0.004 13.361,-5.9915 13.364,-13.353 l 0.0563,-129.15 c 0.004,-7.3611 -5.9915,-13.361 -13.353,-13.364 l -424.66,-0.53 z m -0.0025,5.4932 424.72,0.19142 c 4.3972,0.002 7.8639,3.4715 7.862,7.8685 l -0.0577,129.15 c -0.002,4.3972 -3.4715,7.8639 -7.8688,7.862 l -424.72,-0.1914 c -4.3971,-0.002 -7.8638,-3.4714 -7.8619,-7.8686 l 0.05633,-129.15 c 0.002,-4.397 3.4717,-7.8635 7.8688,-7.8617 z" /></g><metadata
     id="metadata1"><rdf:RDF><cc:Work><dc:format>image/svg+xml</dc:format><dc:type
           rdf:resource="http://purl.org/dc/dcmitype/StillImage" /><cc:license
           rdf:resource="http://creativecommons.org/publicdomain/zero/1.0/" /><dc:publisher><cc:Agent
             rdf:about="http://openclipart.org/"><dc:title>Openclipart</dc:title></cc:Agent></dc:publisher><dc:title>keyboard</dc:title></cc:Work><cc:License
         rdf:about="http://creativecommons.org/publicdomain/zero/1.0/"><cc:permits
           rdf:resource="http://creativecommons.org/ns#Reproduction" /><cc:permits
           rdf:resource="http://creativecommons.org/ns#Distribution" /><cc:permits
           rdf:resource="http://creativecommons.org/ns#DerivativeWorks" /></cc:License></rdf:RDF></metadata><path
     stroke="none"
     fill="#ffffff"
     d="m 254.54384,11.753568 h 10 q 1.75,0 2.9,0.6 2.1,1.15 2.1,4.4 v 10 h -11 v -6 q 0,-2.5 -1.75,-4.25 -1,-1 -2.25,-1.4 v -3.35 m -4.1,6.9 q 0.85,-0.9 2.1,-0.9 1.25,0 2.15,0.9 0.85,0.85 0.85,2.1 v 8 l -0.15,1 -0.7,1.15 q -0.9,0.85 -2.15,0.85 -1.25,0 -2.1,-0.85 -0.5,-0.5 -0.7,-1.15 l -0.2,-1 v -8 q 0,-1.25 0.9,-2.1 m -14.9,11.1 h 11.1 q 0.25,1.85 1.65,3.25 1.75,1.75 4.25,1.75 2.5,0 4.25,-1.75 1.4,-1.4 1.7,-3.25 h 11.05 v 9.5 q -0.2,6.75 -5,11.5 -4.75,4.799996 -11.5,4.999996 h -1 q -6.75,-0.2 -11.55,-4.999996 -4.75,-4.75 -4.95,-11.5 v -9.5 m 5,-18 h 10 v 3.35 q -1.25,0.4 -2.25,1.4 -1.75,1.75 -1.75,4.25 v 6 h -11 v -10 q 0,-3.25 2.15,-4.4 1.1,-0.6 2.85,-0.6"
     id="path1" /></svg>
