<?xml version="1.0" encoding="UTF-8" standalone="no"?>
<!DOCTYPE svg PUBLIC "-//W3C//DTD SVG 1.1//EN" "http://www.w3.org/Graphics/SVG/1.1/DTD/svg11.dtd">
<svg width="100%" height="100%" viewBox="0 0 100 100" version="1.1" xmlns="http://www.w3.org/2000/svg" xmlns:xlink="http://www.w3.org/1999/xlink" xml:space="preserve" xmlns:serif="http://www.serif.com/" style="fill-rule:evenodd;clip-rule:evenodd;stroke-linejoin:round;stroke-miterlimit:2;">
    <g transform="matrix(1.508,0,0,1.53252,-22.1,-21.3415)">
        <path d="M47.812,30.239C56.961,30.239 64.39,37.548 64.39,46.552C64.39,55.555 56.961,62.865 47.812,62.865C38.662,62.865 31.233,55.555 31.233,46.552C31.233,37.548 38.662,30.239 47.812,30.239ZM47.812,38.006C43.019,38.006 39.127,41.835 39.127,46.552C39.127,51.268 43.019,55.097 47.812,55.097C52.605,55.097 56.496,51.268 56.496,46.552C56.496,41.835 52.605,38.006 47.812,38.006Z" style="fill:white;fill-opacity:0.31;"/>
    </g>
</svg>
