<?xml version="1.0" encoding="UTF-8" standalone="no"?>
<!DOCTYPE svg PUBLIC "-//W3C//DTD SVG 1.1//EN" "http://www.w3.org/Graphics/SVG/1.1/DTD/svg11.dtd">
<svg width="100%" height="100%" viewBox="0 0 200 200" version="1.1" xmlns="http://www.w3.org/2000/svg" xmlns:xlink="http://www.w3.org/1999/xlink" xml:space="preserve" xmlns:serif="http://www.serif.com/" style="fill-rule:evenodd;clip-rule:evenodd;stroke-linejoin:round;stroke-miterlimit:2;">
    <g transform="matrix(1.63203,0,0,1.67556,-69.697,-53.5556)">
        <path d="M103.979,31.963C137.796,31.963 165.252,58.705 165.252,91.645C165.252,124.584 137.796,151.326 103.979,151.326C70.161,151.326 42.706,124.584 42.706,91.645C42.706,58.705 70.161,31.963 103.979,31.963ZM103.979,37.931C73.543,37.931 48.833,61.999 48.833,91.645C48.833,121.29 73.543,145.358 103.979,145.358C134.415,145.358 159.125,121.29 159.125,91.645C159.125,61.999 134.415,37.931 103.979,37.931Z" style="fill:white;"/>
    </g>
</svg>
